<?xml version="1.0" encoding="UTF-8" standalone="no"?>
<!DOCTYPE svg PUBLIC "-//W3C//DTD SVG 1.1//EN" "http://www.w3.org/Graphics/SVG/1.1/DTD/svg11.dtd">
<svg width="100%" height="100%" viewBox="0 0 848 117" version="1.1" xmlns="http://www.w3.org/2000/svg" xmlns:xlink="http://www.w3.org/1999/xlink" xml:space="preserve" xmlns:serif="http://www.serif.com/" style="fill-rule:evenodd;clip-rule:evenodd;stroke-linejoin:round;stroke-miterlimit:2;">
    <g transform="matrix(1,0,0,1,-0.000177069,-0.00489413)">
        <g>
            <g transform="matrix(2.11309,0,0,0.872455,-51.5191,-16.8631)">
                <rect x="24.381" y="19.334" width="400.975" height="133.672" style="fill:rgb(0,43,62);"/>
            </g>
            <g transform="matrix(0.658553,0,0,0.658553,184.126,-4.69208)">
                <g transform="matrix(0.726487,0,0,0.726487,413.857,76.5347)">
                    <g>
                        <g transform="matrix(1,0,0,1,-463.291,6.68578)">
                            <path d="M16.937,0L8.086,-16.576L8.086,-1.846C8.086,-1.482 8.168,-1.207 8.332,-1.02C8.496,-0.832 8.789,-0.68 9.211,-0.563L9.211,0L2.162,0L2.162,-0.563C2.584,-0.68 2.877,-0.832 3.041,-1.02C3.205,-1.207 3.287,-1.482 3.287,-1.846L3.287,-22.166C3.287,-22.518 3.205,-22.787 3.041,-22.975C2.877,-23.162 2.584,-23.314 2.162,-23.432L2.162,-23.994L11.411,-23.994L11.411,-23.432C10.86,-23.291 10.585,-22.969 10.585,-22.465C10.585,-22.23 10.667,-21.961 10.831,-21.656L17.376,-9.253L24.01,-21.445C24.302,-21.984 24.449,-22.377 24.449,-22.623C24.449,-23.104 24.156,-23.373 23.57,-23.432L23.57,-23.994L32.643,-23.994L32.643,-23.432C32.221,-23.314 31.928,-23.162 31.764,-22.975C31.6,-22.787 31.518,-22.518 31.518,-22.166L31.518,-1.846C31.518,-1.482 31.6,-1.207 31.764,-1.02C31.928,-0.832 32.221,-0.68 32.643,-0.563L32.643,0L25.154,0L25.154,-0.563C25.564,-0.668 25.854,-0.817 26.024,-1.011C26.194,-1.204 26.279,-1.482 26.279,-1.846L26.279,-16.576L16.937,0Z" style="fill:white;fill-rule:nonzero;"/>
                        </g>
                        <g transform="matrix(1,0,0,1,-463.291,6.68578)">
                            <path d="M47.593,-20.109C50.724,-20.109 53.333,-19.313 55.421,-17.719C57.919,-15.797 59.168,-13.119 59.168,-9.686C59.168,-6.463 57.919,-3.891 55.421,-1.969C53.357,-0.375 50.759,0.422 47.628,0.422C44.497,0.422 41.899,-0.375 39.835,-1.969C37.325,-3.891 36.07,-6.516 36.07,-9.844C36.07,-13.207 37.325,-15.832 39.835,-17.719C41.911,-19.277 44.497,-20.074 47.593,-20.109ZM47.61,-16.383C45.58,-16.383 43.926,-15.732 42.647,-14.432C41.462,-13.213 40.869,-11.684 40.869,-9.844C40.869,-8.016 41.462,-6.492 42.647,-5.273C43.926,-3.961 45.586,-3.305 47.628,-3.305C49.658,-3.305 51.312,-3.961 52.592,-5.273C53.777,-6.48 54.369,-7.975 54.369,-9.756C54.369,-11.689 53.777,-13.248 52.592,-14.432C51.301,-15.709 49.64,-16.359 47.61,-16.383Z" style="fill:white;fill-rule:nonzero;"/>
                        </g>
                        <g transform="matrix(1,0,0,1,-463.291,6.68578)">
                            <path d="M67.588,-12.973L67.588,-1.809C67.588,-1.446 67.673,-1.165 67.843,-0.966C68.013,-0.767 68.303,-0.609 68.713,-0.492L68.713,0L62.174,0L62.174,-0.492C62.584,-0.598 62.874,-0.75 63.044,-0.949C63.214,-1.148 63.299,-1.43 63.299,-1.793L63.299,-17.895C63.299,-18.258 63.217,-18.533 63.053,-18.721C62.889,-18.908 62.596,-19.066 62.174,-19.195L62.174,-19.688L69.735,-19.688L69.735,-19.195C69.219,-19.066 68.961,-18.838 68.961,-18.51C68.961,-18.229 69.149,-17.9 69.524,-17.525L80.086,-7.049L80.086,-17.895C80.086,-18.258 80.004,-18.536 79.84,-18.729C79.676,-18.923 79.383,-19.078 78.961,-19.195L78.961,-19.688L85.5,-19.688L85.5,-19.195C85.078,-19.078 84.785,-18.923 84.621,-18.73C84.457,-18.537 84.375,-18.259 84.375,-17.896L84.375,-1.809C84.375,-1.446 84.457,-1.168 84.621,-0.975C84.785,-0.782 85.078,-0.621 85.5,-0.492L85.5,0L78.449,0L78.449,-0.492C78.965,-0.597 79.222,-0.812 79.222,-1.137C79.222,-1.3 79.152,-1.469 79.011,-1.643C78.871,-1.818 78.548,-2.16 78.044,-2.672L67.588,-12.973Z" style="fill:white;fill-rule:nonzero;"/>
                        </g>
                        <g transform="matrix(1,0,0,1,-463.291,6.68578)">
                            <path d="M94.781,-17.896L94.781,-1.809C94.781,-1.446 94.863,-1.168 95.027,-0.975C95.191,-0.782 95.484,-0.621 95.906,-0.492L95.906,0L88.945,0L88.945,-0.492C89.355,-0.598 89.646,-0.75 89.815,-0.949C89.985,-1.148 90.07,-1.43 90.07,-1.793L90.07,-17.895C90.07,-18.258 89.988,-18.533 89.824,-18.721C89.66,-18.908 89.367,-19.066 88.945,-19.195L88.945,-19.688L95.906,-19.688L95.906,-19.195C95.484,-19.078 95.191,-18.923 95.027,-18.73C94.863,-18.537 94.781,-18.259 94.781,-17.896Z" style="fill:white;fill-rule:nonzero;"/>
                        </g>
                        <g transform="matrix(1,0,0,1,-463.291,6.68578)">
                            <path d="M110.232,-16.119L110.232,-1.809C110.232,-1.446 110.314,-1.168 110.479,-0.975C110.643,-0.782 110.936,-0.621 111.357,-0.492L111.357,0L104.396,0L104.396,-0.492C104.807,-0.598 105.097,-0.75 105.267,-0.949C105.437,-1.148 105.521,-1.43 105.521,-1.793L105.521,-16.119L99.721,-16.119C99.346,-16.119 99.062,-16.036 98.868,-15.868C98.675,-15.701 98.52,-15.41 98.402,-14.994L97.928,-14.994L97.928,-20.813L98.402,-20.813C98.508,-20.402 98.658,-20.112 98.851,-19.942C99.044,-19.772 99.329,-19.688 99.704,-19.688L116.032,-19.688C116.407,-19.688 116.692,-19.77 116.885,-19.934C117.079,-20.098 117.234,-20.391 117.352,-20.813L117.826,-20.813L117.826,-14.994L117.352,-14.994C117.234,-15.41 117.079,-15.701 116.886,-15.868C116.692,-16.036 116.408,-16.119 116.033,-16.119L110.232,-16.119Z" style="fill:white;fill-rule:nonzero;"/>
                        </g>
                        <g transform="matrix(1,0,0,1,-463.291,6.68578)">
                            <path d="M130.878,-20.109C134.009,-20.109 136.619,-19.313 138.706,-17.719C141.204,-15.797 142.453,-13.119 142.453,-9.686C142.453,-6.463 141.204,-3.891 138.706,-1.969C136.642,-0.375 134.044,0.422 130.913,0.422C127.782,0.422 125.184,-0.375 123.12,-1.969C120.61,-3.891 119.355,-6.516 119.355,-9.844C119.355,-13.207 120.61,-15.832 123.12,-17.719C125.196,-19.277 127.782,-20.074 130.878,-20.109ZM130.896,-16.383C128.866,-16.383 127.211,-15.732 125.932,-14.432C124.747,-13.213 124.154,-11.684 124.154,-9.844C124.154,-8.016 124.747,-6.492 125.932,-5.273C127.211,-3.961 128.871,-3.305 130.913,-3.305C132.943,-3.305 134.598,-3.961 135.877,-5.273C137.062,-6.48 137.654,-7.975 137.654,-9.756C137.654,-11.689 137.062,-13.248 135.877,-14.432C134.586,-15.709 132.925,-16.359 130.896,-16.383Z" style="fill:white;fill-rule:nonzero;"/>
                        </g>
                        <g transform="matrix(1,0,0,1,-463.291,6.68578)">
                            <path d="M151.295,-8.086L151.295,-1.808C151.295,-1.445 151.377,-1.167 151.541,-0.974C151.705,-0.781 151.998,-0.621 152.42,-0.492L152.42,0L145.459,0L145.459,-0.492C145.869,-0.598 146.159,-0.75 146.329,-0.949C146.499,-1.148 146.584,-1.43 146.584,-1.793L146.584,-17.895C146.584,-18.258 146.502,-18.533 146.338,-18.721C146.174,-18.908 145.881,-19.066 145.459,-19.195L145.459,-19.688L158.361,-19.688C160.037,-19.688 161.314,-19.603 162.193,-19.433C163.072,-19.263 163.857,-18.955 164.549,-18.51C165.967,-17.584 166.676,-16.072 166.676,-13.975C166.676,-12.381 166.239,-11.136 165.366,-10.239C164.493,-9.343 163.084,-8.695 161.139,-8.297L164.865,-3.105C165.545,-2.147 166.087,-1.495 166.491,-1.15C166.896,-0.805 167.355,-0.586 167.871,-0.492L167.871,0L159.592,0L159.592,-0.492C160.202,-0.656 160.507,-0.919 160.507,-1.281C160.507,-1.539 160.319,-1.93 159.943,-2.456L156.011,-8.086L151.295,-8.086ZM151.295,-11.654L158.396,-11.654C159.475,-11.654 160.271,-11.771 160.787,-12.006C161.514,-12.322 161.877,-12.949 161.877,-13.887C161.877,-14.719 161.622,-15.299 161.112,-15.627C160.603,-15.955 159.697,-16.119 158.396,-16.119L151.295,-16.119L151.295,-11.654Z" style="fill:white;fill-rule:nonzero;"/>
                        </g>
                        <g transform="matrix(1,0,0,1,-463.291,6.68578)">
                            <path d="M176.08,-17.896L176.08,-1.809C176.08,-1.446 176.162,-1.168 176.326,-0.975C176.49,-0.782 176.783,-0.621 177.205,-0.492L177.205,0L170.244,0L170.244,-0.492C170.654,-0.598 170.944,-0.75 171.114,-0.949C171.284,-1.148 171.369,-1.43 171.369,-1.793L171.369,-17.895C171.369,-18.258 171.287,-18.533 171.123,-18.721C170.959,-18.908 170.666,-19.066 170.244,-19.195L170.244,-19.688L177.205,-19.688L177.205,-19.195C176.783,-19.078 176.49,-18.923 176.326,-18.73C176.162,-18.537 176.08,-18.259 176.08,-17.896Z" style="fill:white;fill-rule:nonzero;"/>
                        </g>
                        <g transform="matrix(1,0,0,1,-463.291,6.68578)">
                            <path d="M186.082,-12.973L186.082,-1.809C186.082,-1.446 186.167,-1.165 186.337,-0.966C186.507,-0.767 186.797,-0.609 187.207,-0.492L187.207,0L180.668,0L180.668,-0.492C181.078,-0.598 181.368,-0.75 181.538,-0.949C181.708,-1.148 181.793,-1.43 181.793,-1.793L181.793,-17.895C181.793,-18.258 181.711,-18.533 181.547,-18.721C181.383,-18.908 181.09,-19.066 180.668,-19.195L180.668,-19.688L188.229,-19.688L188.229,-19.195C187.714,-19.066 187.456,-18.838 187.456,-18.51C187.456,-18.229 187.643,-17.9 188.018,-17.525L198.58,-7.049L198.58,-17.895C198.58,-18.258 198.498,-18.536 198.334,-18.729C198.17,-18.923 197.877,-19.078 197.455,-19.195L197.455,-19.688L203.994,-19.688L203.994,-19.195C203.572,-19.078 203.279,-18.923 203.115,-18.73C202.951,-18.537 202.869,-18.259 202.869,-17.896L202.869,-1.809C202.869,-1.446 202.951,-1.168 203.115,-0.975C203.279,-0.782 203.572,-0.621 203.994,-0.492L203.994,0L196.943,0L196.943,-0.492C197.459,-0.597 197.717,-0.812 197.717,-1.137C197.717,-1.3 197.646,-1.469 197.505,-1.643C197.365,-1.818 197.042,-2.16 196.538,-2.672L186.082,-12.973Z" style="fill:white;fill-rule:nonzero;"/>
                        </g>
                        <g transform="matrix(1,0,0,1,-463.291,6.68578)">
                            <path d="M225.193,-7.594L220.711,-7.594C220.336,-7.594 220.052,-7.512 219.858,-7.348C219.665,-7.184 219.51,-6.891 219.393,-6.469L218.918,-6.469L218.918,-11.689L219.393,-11.689C219.51,-11.273 219.665,-10.981 219.858,-10.814C220.052,-10.648 220.336,-10.564 220.711,-10.564L230.08,-10.564L230.08,-10.055C229.67,-9.938 229.38,-9.768 229.21,-9.545C229.04,-9.322 228.955,-9.006 228.955,-8.596L228.955,-4.447C228.955,-4.084 229.04,-3.803 229.21,-3.604C229.38,-3.404 229.67,-3.246 230.08,-3.129L230.08,-2.725C226.283,-0.627 222.498,0.422 218.725,0.422C215.467,0.422 212.83,-0.346 210.814,-1.881C209.725,-2.725 208.846,-3.768 208.178,-5.01C207.393,-6.486 207,-8.063 207,-9.738C207,-12.059 207.715,-14.121 209.145,-15.926C211.371,-18.715 214.664,-20.109 219.023,-20.109C220.934,-20.109 223.113,-19.688 225.563,-18.844C226.535,-18.516 227.104,-18.352 227.268,-18.352C227.467,-18.352 227.701,-18.445 227.971,-18.633L228.393,-18.404L226.046,-13.447L225.624,-13.658L225.624,-13.764C225.624,-14.197 225.191,-14.643 224.324,-15.1C222.72,-15.955 220.998,-16.383 219.159,-16.383C217.04,-16.383 215.301,-15.803 213.942,-14.643C212.513,-13.424 211.799,-11.783 211.799,-9.721C211.799,-7.787 212.449,-6.24 213.75,-5.08C215.086,-3.896 216.961,-3.305 219.375,-3.305C221.672,-3.305 223.611,-3.732 225.193,-4.588L225.193,-7.594Z" style="fill:white;fill-rule:nonzero;"/>
                        </g>
                        <g transform="matrix(1,0,0,1,-463.291,6.68578)">
                            <path d="M260.366,-6.117L249.46,-6.117L247.845,-2.742C247.623,-2.273 247.511,-1.904 247.511,-1.635C247.511,-1.119 247.903,-0.762 248.687,-0.563L248.687,0L240.75,0L240.75,-0.563C241.219,-0.656 241.576,-0.82 241.822,-1.055C242.068,-1.289 242.35,-1.746 242.666,-2.426L251.49,-20.865C251.771,-21.451 251.912,-21.92 251.912,-22.271C251.912,-22.811 251.572,-23.197 250.893,-23.432L250.893,-23.994L259.4,-23.994L259.4,-23.432C258.709,-23.232 258.363,-22.887 258.363,-22.395C258.363,-22.055 258.475,-21.668 258.697,-21.234L267.838,-2.742C268.225,-1.957 268.564,-1.421 268.857,-1.134C269.15,-0.847 269.543,-0.656 270.035,-0.563L270.035,0L261.202,0L261.202,-0.563C261.978,-0.691 262.366,-1.055 262.366,-1.652C262.366,-1.898 262.249,-2.262 262.014,-2.742L260.366,-6.117ZM258.858,-9.404L254.967,-17.951L251.014,-9.404L258.858,-9.404Z" style="fill:white;fill-rule:nonzero;"/>
                        </g>
                        <g transform="matrix(1,0,0,1,-463.291,6.68578)">
                            <path d="M284.229,0L277.049,-12.951L277.049,-1.81C277.049,-1.447 277.131,-1.169 277.295,-0.975C277.459,-0.782 277.752,-0.621 278.174,-0.492L278.174,0L271.635,0L271.635,-0.492C272.045,-0.598 272.335,-0.75 272.505,-0.949C272.675,-1.148 272.76,-1.43 272.76,-1.793L272.76,-17.895C272.76,-18.258 272.678,-18.536 272.514,-18.729C272.35,-18.923 272.057,-19.078 271.635,-19.195L271.635,-19.688L279.953,-19.688L279.953,-19.195C279.402,-19.02 279.126,-18.686 279.126,-18.193C279.126,-17.713 279.325,-17.127 279.724,-16.436L284.634,-7.53L289.579,-16.313C290.142,-17.238 290.423,-17.895 290.423,-18.281C290.423,-18.762 290.136,-19.066 289.562,-19.195L289.562,-19.688L297.668,-19.688L297.668,-19.195C297.246,-19.078 296.953,-18.923 296.789,-18.73C296.625,-18.537 296.543,-18.259 296.543,-17.896L296.543,-1.809C296.543,-1.446 296.625,-1.165 296.789,-0.966C296.953,-0.767 297.246,-0.609 297.668,-0.492L297.668,0L290.707,0L290.707,-0.492C291.117,-0.598 291.407,-0.75 291.577,-0.95C291.747,-1.149 291.832,-1.431 291.832,-1.794L291.832,-12.951L284.229,0Z" style="fill:white;fill-rule:nonzero;"/>
                        </g>
                        <g transform="matrix(1,0,0,1,-463.291,6.68578)">
                            <path d="M316.03,-4.922L306.976,-4.922L305.956,-2.777C305.71,-2.262 305.587,-1.857 305.587,-1.564C305.587,-1.002 305.962,-0.645 306.712,-0.492L306.712,0L299.479,0L299.479,-0.492C299.924,-0.563 300.255,-0.697 300.472,-0.896C300.688,-1.096 300.943,-1.488 301.236,-2.074L308.426,-16.629C308.695,-17.18 308.83,-17.66 308.83,-18.07C308.83,-18.551 308.502,-18.926 307.846,-19.195L307.846,-19.688L315.492,-19.688L315.492,-19.195C314.848,-18.938 314.525,-18.539 314.525,-18C314.525,-17.613 314.672,-17.139 314.965,-16.576L322.418,-2.461C322.828,-1.694 323.15,-1.198 323.385,-0.971C323.619,-0.745 323.977,-0.585 324.457,-0.492L324.457,0L316.415,0L316.415,-0.492C317.176,-0.621 317.557,-0.977 317.557,-1.56C317.557,-1.922 317.41,-2.371 317.117,-2.908L316.03,-4.922ZM314.612,-7.682L311.388,-14.014L308.319,-7.682L314.612,-7.682Z" style="fill:white;fill-rule:nonzero;"/>
                        </g>
                        <g transform="matrix(1,0,0,1,-463.291,6.68578)">
                            <path d="M331.506,-12.973L331.506,-1.809C331.506,-1.446 331.591,-1.165 331.761,-0.966C331.931,-0.767 332.221,-0.609 332.631,-0.492L332.631,0L326.092,0L326.092,-0.492C326.502,-0.598 326.792,-0.75 326.962,-0.949C327.132,-1.148 327.217,-1.43 327.217,-1.793L327.217,-17.895C327.217,-18.258 327.135,-18.533 326.971,-18.721C326.807,-18.908 326.514,-19.066 326.092,-19.195L326.092,-19.688L333.653,-19.688L333.653,-19.195C333.137,-19.066 332.879,-18.838 332.879,-18.51C332.879,-18.229 333.067,-17.9 333.442,-17.525L344.004,-7.049L344.004,-17.895C344.004,-18.258 343.922,-18.536 343.758,-18.729C343.594,-18.923 343.301,-19.078 342.879,-19.195L342.879,-19.688L349.418,-19.688L349.418,-19.195C348.996,-19.078 348.703,-18.923 348.539,-18.73C348.375,-18.537 348.293,-18.259 348.293,-17.896L348.293,-1.809C348.293,-1.446 348.375,-1.168 348.539,-0.975C348.703,-0.782 348.996,-0.621 349.418,-0.492L349.418,0L342.367,0L342.367,-0.492C342.882,-0.597 343.14,-0.812 343.14,-1.137C343.14,-1.3 343.07,-1.469 342.929,-1.643C342.789,-1.818 342.466,-2.16 341.962,-2.672L331.506,-12.973Z" style="fill:white;fill-rule:nonzero;"/>
                        </g>
                        <g transform="matrix(1,0,0,1,-463.291,6.68578)">
                            <path d="M353.988,-1.793L353.988,-17.895C353.988,-18.258 353.906,-18.533 353.742,-18.721C353.578,-18.908 353.285,-19.066 352.863,-19.195L352.863,-19.688L364.412,-19.688C366.814,-19.688 368.707,-19.389 370.09,-18.791C372.035,-17.947 373.436,-16.553 374.291,-14.607C374.889,-13.248 375.188,-11.66 375.188,-9.844C375.188,-6.48 374.186,-3.932 372.182,-2.197C371.279,-1.424 370.216,-0.864 368.991,-0.519C367.767,-0.173 366.24,0 364.412,0L352.863,0L352.863,-0.492C353.273,-0.598 353.563,-0.75 353.733,-0.949C353.903,-1.148 353.988,-1.43 353.988,-1.793ZM358.699,-3.568L363.727,-3.568C366.035,-3.568 367.711,-4.096 368.754,-5.15C369.844,-6.252 370.389,-7.816 370.389,-9.844C370.389,-11.871 369.844,-13.436 368.754,-14.537C368.215,-15.088 367.547,-15.489 366.75,-15.741C365.953,-15.993 364.945,-16.119 363.727,-16.119L358.699,-16.119L358.699,-3.568Z" style="fill:white;fill-rule:nonzero;"/>
                        </g>
                        <g transform="matrix(1,0,0,1,-463.291,6.68578)">
                            <path d="M384.029,-8.367L384.029,-3.568L396.527,-3.568C396.891,-3.568 397.169,-3.649 397.362,-3.811C397.556,-3.972 397.711,-4.266 397.828,-4.693L398.32,-4.693L398.32,1.125L397.828,1.125C397.723,0.715 397.57,0.425 397.371,0.255C397.172,0.085 396.891,0 396.527,0L378.193,0L378.193,-0.492C378.604,-0.598 378.894,-0.75 379.063,-0.949C379.233,-1.148 379.318,-1.43 379.318,-1.793L379.318,-17.895C379.318,-18.258 379.236,-18.533 379.072,-18.721C378.908,-18.908 378.615,-19.066 378.193,-19.195L378.193,-19.688L395.982,-19.688C396.357,-19.688 396.642,-19.77 396.835,-19.934C397.028,-20.098 397.184,-20.391 397.301,-20.813L397.775,-20.813L397.775,-14.994L397.301,-14.994C397.184,-15.421 397.028,-15.715 396.835,-15.877C396.642,-16.038 396.357,-16.119 395.982,-16.119L384.029,-16.119L384.029,-11.795L391.447,-11.795C391.811,-11.795 392.089,-11.877 392.282,-12.041C392.476,-12.205 392.637,-12.498 392.766,-12.92L393.24,-12.92L393.24,-7.242L392.766,-7.242C392.648,-7.658 392.493,-7.949 392.3,-8.116C392.106,-8.284 391.822,-8.367 391.447,-8.367L384.029,-8.367Z" style="fill:white;fill-rule:nonzero;"/>
                        </g>
                        <g transform="matrix(1,0,0,1,-463.291,6.68578)">
                            <path d="M413.886,0L406.705,-12.951L406.705,-1.81C406.705,-1.447 406.787,-1.169 406.951,-0.975C407.115,-0.782 407.408,-0.621 407.83,-0.492L407.83,0L401.291,0L401.291,-0.492C401.701,-0.598 401.991,-0.75 402.161,-0.949C402.331,-1.148 402.416,-1.43 402.416,-1.793L402.416,-17.895C402.416,-18.258 402.334,-18.536 402.17,-18.729C402.006,-18.923 401.713,-19.078 401.291,-19.195L401.291,-19.688L409.609,-19.688L409.609,-19.195C409.058,-19.02 408.782,-18.686 408.782,-18.193C408.782,-17.713 408.982,-17.127 409.38,-16.436L414.29,-7.53L419.236,-16.313C419.798,-17.238 420.08,-17.895 420.08,-18.281C420.08,-18.762 419.792,-19.066 419.218,-19.195L419.218,-19.688L427.324,-19.688L427.324,-19.195C426.902,-19.078 426.609,-18.923 426.445,-18.73C426.281,-18.537 426.199,-18.259 426.199,-17.896L426.199,-1.809C426.199,-1.446 426.281,-1.165 426.445,-0.966C426.609,-0.767 426.902,-0.609 427.324,-0.492L427.324,0L420.363,0L420.363,-0.492C420.773,-0.598 421.063,-0.75 421.233,-0.95C421.403,-1.149 421.488,-1.431 421.488,-1.794L421.488,-12.951L413.886,0Z" style="fill:white;fill-rule:nonzero;"/>
                        </g>
                        <g transform="matrix(1,0,0,1,-463.291,6.68578)">
                            <path d="M436.605,-8.367L436.605,-3.568L449.104,-3.568C449.467,-3.568 449.745,-3.649 449.938,-3.811C450.132,-3.972 450.287,-4.266 450.404,-4.693L450.896,-4.693L450.896,1.125L450.404,1.125C450.299,0.715 450.146,0.425 449.947,0.255C449.748,0.085 449.467,0 449.104,0L430.77,0L430.77,-0.492C431.18,-0.598 431.47,-0.75 431.64,-0.949C431.81,-1.148 431.895,-1.43 431.895,-1.793L431.895,-17.895C431.895,-18.258 431.813,-18.533 431.648,-18.721C431.484,-18.908 431.191,-19.066 430.77,-19.195L430.77,-19.688L448.559,-19.688C448.934,-19.688 449.218,-19.77 449.411,-19.934C449.604,-20.098 449.76,-20.391 449.877,-20.813L450.352,-20.813L450.352,-14.994L449.877,-14.994C449.76,-15.421 449.604,-15.715 449.411,-15.877C449.218,-16.038 448.934,-16.119 448.559,-16.119L436.605,-16.119L436.605,-11.795L444.023,-11.795C444.387,-11.795 444.665,-11.877 444.858,-12.041C445.052,-12.205 445.213,-12.498 445.342,-12.92L445.816,-12.92L445.816,-7.242L445.342,-7.242C445.225,-7.658 445.069,-7.949 444.876,-8.116C444.683,-8.284 444.398,-8.367 444.023,-8.367L436.605,-8.367Z" style="fill:white;fill-rule:nonzero;"/>
                        </g>
                        <g transform="matrix(1,0,0,1,-463.291,6.68578)">
                            <path d="M459.281,-12.973L459.281,-1.809C459.281,-1.446 459.366,-1.165 459.536,-0.966C459.706,-0.767 459.996,-0.609 460.406,-0.492L460.406,0L453.867,0L453.867,-0.492C454.277,-0.598 454.567,-0.75 454.737,-0.949C454.907,-1.148 454.992,-1.43 454.992,-1.793L454.992,-17.895C454.992,-18.258 454.91,-18.533 454.746,-18.721C454.582,-18.908 454.289,-19.066 453.867,-19.195L453.867,-19.688L461.429,-19.688L461.429,-19.195C460.913,-19.066 460.655,-18.838 460.655,-18.51C460.655,-18.229 460.842,-17.9 461.218,-17.525L471.779,-7.049L471.779,-17.895C471.779,-18.258 471.697,-18.536 471.533,-18.729C471.369,-18.923 471.076,-19.078 470.654,-19.195L470.654,-19.688L477.193,-19.688L477.193,-19.195C476.771,-19.078 476.479,-18.923 476.314,-18.73C476.15,-18.537 476.068,-18.259 476.068,-17.896L476.068,-1.809C476.068,-1.446 476.15,-1.168 476.314,-0.975C476.479,-0.782 476.771,-0.621 477.193,-0.492L477.193,0L470.142,0L470.142,-0.492C470.658,-0.597 470.916,-0.812 470.916,-1.137C470.916,-1.3 470.845,-1.469 470.705,-1.643C470.564,-1.818 470.242,-2.16 469.737,-2.672L459.281,-12.973Z" style="fill:white;fill-rule:nonzero;"/>
                        </g>
                    </g>
                </g>
                <g transform="matrix(0.726487,0,0,0.726487,413.857,97.8535)">
                    <g>
                        <g>
                            <g transform="matrix(1,0,0,1,-463.291,6.68578)">
                                <path d="M15.354,-24.416C19.541,-24.416 22.859,-23.285 25.31,-21.023C27.902,-18.656 29.197,-15.598 29.197,-11.848C29.197,-9.551 28.576,-7.406 27.333,-5.414C24.905,-1.523 20.924,0.422 15.39,0.422C11.239,0.422 7.938,-0.709 5.487,-2.971C4.173,-4.178 3.177,-5.625 2.497,-7.313C1.899,-8.801 1.6,-10.365 1.6,-12.006C1.6,-14.408 2.215,-16.605 3.446,-18.598C5.803,-22.406 9.773,-24.346 15.354,-24.416ZM15.372,-20.338C13.085,-20.338 11.178,-19.659 9.653,-18.301C7.847,-16.697 6.943,-14.596 6.943,-11.997C6.943,-9.398 7.847,-7.297 9.653,-5.693C11.178,-4.335 13.096,-3.656 15.407,-3.656C17.718,-3.656 19.63,-4.335 21.144,-5.693C22.047,-6.501 22.739,-7.49 23.22,-8.661C23.642,-9.703 23.854,-10.78 23.854,-11.892C23.854,-14.608 22.95,-16.744 21.144,-18.301C19.607,-19.635 17.683,-20.314 15.372,-20.338Z" style="fill:white;fill-rule:nonzero;"/>
                            </g>
                            <g transform="matrix(1,0,0,1,-463.291,6.68578)">
                                <path d="M43.383,-16.119L43.383,-1.809C43.383,-1.446 43.465,-1.168 43.629,-0.975C43.793,-0.782 44.086,-0.621 44.508,-0.492L44.508,0L37.547,0L37.547,-0.492C37.957,-0.598 38.247,-0.75 38.417,-0.949C38.587,-1.148 38.672,-1.43 38.672,-1.793L38.672,-16.119L32.871,-16.119C32.496,-16.119 32.212,-16.036 32.019,-15.868C31.825,-15.701 31.67,-15.41 31.553,-14.994L31.078,-14.994L31.078,-20.813L31.553,-20.813C31.658,-20.402 31.808,-20.112 32.001,-19.942C32.195,-19.772 32.479,-19.688 32.855,-19.688L49.182,-19.688C49.558,-19.688 49.842,-19.77 50.036,-19.934C50.229,-20.098 50.385,-20.391 50.502,-20.813L50.977,-20.813L50.977,-14.994L50.502,-14.994C50.385,-15.41 50.229,-15.701 50.036,-15.868C49.843,-16.036 49.559,-16.119 49.184,-16.119L43.383,-16.119Z" style="fill:white;fill-rule:nonzero;"/>
                            </g>
                            <g transform="matrix(1,0,0,1,-463.291,6.68578)">
                                <path d="M64.028,-20.109C67.16,-20.109 69.769,-19.313 71.857,-17.719C74.355,-15.797 75.604,-13.119 75.604,-9.686C75.604,-6.463 74.355,-3.891 71.857,-1.969C69.792,-0.375 67.195,0.422 64.063,0.422C60.932,0.422 58.334,-0.375 56.27,-1.969C53.761,-3.891 52.506,-6.516 52.506,-9.844C52.506,-13.207 53.761,-15.832 56.27,-17.719C58.346,-19.277 60.932,-20.074 64.028,-20.109ZM64.046,-16.383C62.016,-16.383 60.361,-15.732 59.082,-14.432C57.897,-13.213 57.305,-11.684 57.305,-9.844C57.305,-8.016 57.897,-6.492 59.082,-5.273C60.361,-3.961 62.022,-3.305 64.063,-3.305C66.093,-3.305 67.748,-3.961 69.027,-5.273C70.212,-6.48 70.805,-7.975 70.805,-9.756C70.805,-11.689 70.212,-13.248 69.027,-14.432C67.736,-15.709 66.076,-16.359 64.046,-16.383Z" style="fill:white;fill-rule:nonzero;"/>
                            </g>
                            <g transform="matrix(1,0,0,1,-463.291,6.68578)">
                                <path d="M91.204,0L84.023,-12.951L84.023,-1.81C84.023,-1.447 84.105,-1.169 84.27,-0.975C84.434,-0.782 84.727,-0.621 85.148,-0.492L85.148,0L78.609,0L78.609,-0.492C79.02,-0.598 79.31,-0.75 79.479,-0.949C79.649,-1.148 79.734,-1.43 79.734,-1.793L79.734,-17.895C79.734,-18.258 79.652,-18.536 79.488,-18.729C79.324,-18.923 79.031,-19.078 78.609,-19.195L78.609,-19.688L86.927,-19.688L86.927,-19.195C86.376,-19.02 86.101,-18.686 86.101,-18.193C86.101,-17.713 86.3,-17.127 86.699,-16.436L91.609,-7.53L96.554,-16.313C97.117,-17.238 97.398,-17.895 97.398,-18.281C97.398,-18.762 97.111,-19.066 96.536,-19.195L96.536,-19.688L104.643,-19.688L104.643,-19.195C104.221,-19.078 103.928,-18.923 103.764,-18.73C103.6,-18.537 103.518,-18.259 103.518,-17.896L103.518,-1.809C103.518,-1.446 103.6,-1.165 103.764,-0.966C103.928,-0.767 104.221,-0.609 104.643,-0.492L104.643,0L97.682,0L97.682,-0.492C98.092,-0.598 98.382,-0.75 98.552,-0.95C98.722,-1.149 98.807,-1.431 98.807,-1.794L98.807,-12.951L91.204,0Z" style="fill:white;fill-rule:nonzero;"/>
                            </g>
                            <g transform="matrix(1,0,0,1,-463.291,6.68578)">
                                <path d="M123.004,-4.922L113.95,-4.922L112.93,-2.777C112.684,-2.262 112.561,-1.857 112.561,-1.564C112.561,-1.002 112.936,-0.645 113.687,-0.492L113.687,0L106.453,0L106.453,-0.492C106.898,-0.563 107.229,-0.697 107.446,-0.896C107.663,-1.096 107.918,-1.488 108.211,-2.074L115.4,-16.629C115.67,-17.18 115.805,-17.66 115.805,-18.07C115.805,-18.551 115.477,-18.926 114.82,-19.195L114.82,-19.688L122.467,-19.688L122.467,-19.195C121.822,-18.938 121.5,-18.539 121.5,-18C121.5,-17.613 121.646,-17.139 121.939,-16.576L129.393,-2.461C129.803,-1.694 130.125,-1.198 130.359,-0.971C130.594,-0.745 130.951,-0.585 131.432,-0.492L131.432,0L123.39,0L123.39,-0.492C124.151,-0.621 124.531,-0.977 124.531,-1.56C124.531,-1.922 124.385,-2.371 124.092,-2.908L123.004,-4.922ZM121.587,-7.682L118.363,-14.014L115.294,-7.682L121.587,-7.682Z" style="fill:white;fill-rule:nonzero;"/>
                            </g>
                            <g transform="matrix(1,0,0,1,-463.291,6.68578)">
                                <path d="M143.93,-16.119L143.93,-1.809C143.93,-1.446 144.012,-1.168 144.176,-0.975C144.34,-0.782 144.633,-0.621 145.055,-0.492L145.055,0L138.094,0L138.094,-0.492C138.504,-0.598 138.794,-0.75 138.964,-0.949C139.134,-1.148 139.219,-1.43 139.219,-1.793L139.219,-16.119L133.418,-16.119C133.043,-16.119 132.759,-16.036 132.565,-15.868C132.372,-15.701 132.217,-15.41 132.1,-14.994L131.625,-14.994L131.625,-20.813L132.1,-20.813C132.205,-20.402 132.355,-20.112 132.548,-19.942C132.742,-19.772 133.026,-19.688 133.401,-19.688L149.729,-19.688C150.105,-19.688 150.389,-19.77 150.582,-19.934C150.776,-20.098 150.931,-20.391 151.049,-20.813L151.523,-20.813L151.523,-14.994L151.049,-14.994C150.932,-15.41 150.776,-15.701 150.583,-15.868C150.39,-16.036 150.105,-16.119 149.73,-16.119L143.93,-16.119Z" style="fill:white;fill-rule:nonzero;"/>
                            </g>
                            <g transform="matrix(1,0,0,1,-463.291,6.68578)">
                                <path d="M159.381,-17.896L159.381,-1.809C159.381,-1.446 159.463,-1.168 159.627,-0.975C159.791,-0.782 160.084,-0.621 160.506,-0.492L160.506,0L153.545,0L153.545,-0.492C153.955,-0.598 154.245,-0.75 154.415,-0.949C154.585,-1.148 154.67,-1.43 154.67,-1.793L154.67,-17.895C154.67,-18.258 154.588,-18.533 154.424,-18.721C154.26,-18.908 153.967,-19.066 153.545,-19.195L153.545,-19.688L160.506,-19.688L160.506,-19.195C160.084,-19.078 159.791,-18.923 159.627,-18.73C159.463,-18.537 159.381,-18.259 159.381,-17.896Z" style="fill:white;fill-rule:nonzero;"/>
                            </g>
                            <g transform="matrix(1,0,0,1,-463.291,6.68578)">
                                <path d="M182.9,-17.912L180.527,-13.324L180.105,-13.553C180.105,-13.939 179.982,-14.244 179.736,-14.467C179.068,-15.064 178.084,-15.557 176.783,-15.943C175.482,-16.33 174.164,-16.523 172.828,-16.523C171.691,-16.523 170.684,-16.365 169.805,-16.049C168.539,-15.592 167.906,-14.93 167.906,-14.063C167.906,-13.488 168.211,-13.081 168.82,-12.841C169.43,-12.601 170.607,-12.41 172.354,-12.27L175.131,-12.059C177.557,-11.871 179.402,-11.402 180.668,-10.652C181.371,-10.23 181.951,-9.668 182.408,-8.965C182.982,-8.086 183.27,-7.096 183.27,-5.994C183.27,-3.99 182.367,-2.408 180.563,-1.248C178.84,-0.135 176.508,0.422 173.566,0.422C170.602,0.422 167.736,-0.205 164.971,-1.459C164.783,-1.541 164.625,-1.582 164.496,-1.582C164.262,-1.582 164.045,-1.441 163.846,-1.16L163.406,-1.336L165.428,-6.152L165.867,-5.977L165.867,-5.836C165.867,-5.531 165.984,-5.273 166.219,-5.063C166.805,-4.547 167.818,-4.099 169.26,-3.718C170.701,-3.337 172.125,-3.146 173.531,-3.146C174.773,-3.146 175.887,-3.311 176.871,-3.639C178.09,-4.037 178.699,-4.682 178.699,-5.572C178.699,-6.287 178.277,-6.785 177.434,-7.066C176.871,-7.254 175.857,-7.412 174.393,-7.541L171.633,-7.77C170.145,-7.887 169.008,-8.039 168.223,-8.227C167.438,-8.414 166.752,-8.689 166.166,-9.053C165.416,-9.521 164.83,-10.16 164.408,-10.969C163.986,-11.777 163.775,-12.662 163.775,-13.623C163.775,-15.779 164.701,-17.426 166.553,-18.563C168.24,-19.594 170.326,-20.109 172.811,-20.109C174.158,-20.109 175.415,-19.96 176.581,-19.661C177.747,-19.362 179.139,-18.838 180.756,-18.088C181.236,-17.865 181.57,-17.754 181.758,-17.754C181.945,-17.754 182.186,-17.883 182.479,-18.141L182.9,-17.912Z" style="fill:white;fill-rule:nonzero;"/>
                            </g>
                            <g transform="matrix(1,0,0,1,-463.291,6.68578)">
                                <path d="M201.051,-4.922L191.997,-4.922L190.977,-2.777C190.731,-2.262 190.608,-1.857 190.608,-1.564C190.608,-1.002 190.983,-0.645 191.733,-0.492L191.733,0L184.5,0L184.5,-0.492C184.945,-0.563 185.276,-0.697 185.493,-0.896C185.71,-1.096 185.965,-1.488 186.258,-2.074L193.447,-16.629C193.717,-17.18 193.852,-17.66 193.852,-18.07C193.852,-18.551 193.523,-18.926 192.867,-19.195L192.867,-19.688L200.514,-19.688L200.514,-19.195C199.869,-18.938 199.547,-18.539 199.547,-18C199.547,-17.613 199.693,-17.139 199.986,-16.576L207.439,-2.461C207.85,-1.694 208.172,-1.198 208.406,-0.971C208.641,-0.745 208.998,-0.585 209.479,-0.492L209.479,0L201.437,0L201.437,-0.492C202.198,-0.621 202.578,-0.977 202.578,-1.56C202.578,-1.922 202.432,-2.371 202.139,-2.908L201.051,-4.922ZM199.634,-7.682L196.41,-14.014L193.341,-7.682L199.634,-7.682Z" style="fill:white;fill-rule:nonzero;"/>
                            </g>
                            <g transform="matrix(1,0,0,1,-463.291,6.68578)">
                                <path d="M230.045,-17.912L227.672,-13.324L227.25,-13.553C227.25,-13.939 227.127,-14.244 226.881,-14.467C226.213,-15.064 225.229,-15.557 223.928,-15.943C222.627,-16.33 221.309,-16.523 219.973,-16.523C218.836,-16.523 217.828,-16.365 216.949,-16.049C215.684,-15.592 215.051,-14.93 215.051,-14.063C215.051,-13.488 215.355,-13.081 215.965,-12.841C216.574,-12.601 217.752,-12.41 219.498,-12.27L222.275,-12.059C224.701,-11.871 226.547,-11.402 227.813,-10.652C228.516,-10.23 229.096,-9.668 229.553,-8.965C230.127,-8.086 230.414,-7.096 230.414,-5.994C230.414,-3.99 229.512,-2.408 227.707,-1.248C225.984,-0.135 223.652,0.422 220.711,0.422C217.746,0.422 214.881,-0.205 212.115,-1.459C211.928,-1.541 211.77,-1.582 211.641,-1.582C211.406,-1.582 211.189,-1.441 210.99,-1.16L210.551,-1.336L212.572,-6.152L213.012,-5.977L213.012,-5.836C213.012,-5.531 213.129,-5.273 213.363,-5.063C213.949,-4.547 214.963,-4.099 216.404,-3.718C217.846,-3.337 219.27,-3.146 220.676,-3.146C221.918,-3.146 223.031,-3.311 224.016,-3.639C225.234,-4.037 225.844,-4.682 225.844,-5.572C225.844,-6.287 225.422,-6.785 224.578,-7.066C224.016,-7.254 223.002,-7.412 221.537,-7.541L218.777,-7.77C217.289,-7.887 216.152,-8.039 215.367,-8.227C214.582,-8.414 213.896,-8.689 213.311,-9.053C212.561,-9.521 211.975,-10.16 211.553,-10.969C211.131,-11.777 210.92,-12.662 210.92,-13.623C210.92,-15.779 211.846,-17.426 213.697,-18.563C215.385,-19.594 217.471,-20.109 219.955,-20.109C221.303,-20.109 222.56,-19.96 223.726,-19.661C224.892,-19.362 226.283,-18.838 227.9,-18.088C228.381,-17.865 228.715,-17.754 228.902,-17.754C229.09,-17.754 229.33,-17.883 229.623,-18.141L230.045,-17.912Z" style="fill:white;fill-rule:nonzero;"/>
                            </g>
                            <g transform="matrix(1,0,0,1,-463.291,6.68578)">
                                <path d="M239.115,-17.896L239.115,-1.809C239.115,-1.446 239.197,-1.168 239.361,-0.975C239.525,-0.782 239.818,-0.621 240.24,-0.492L240.24,0L233.279,0L233.279,-0.492C233.689,-0.598 233.979,-0.75 234.149,-0.949C234.319,-1.148 234.404,-1.43 234.404,-1.793L234.404,-17.895C234.404,-18.258 234.322,-18.533 234.158,-18.721C233.994,-18.908 233.701,-19.066 233.279,-19.195L233.279,-19.688L240.24,-19.688L240.24,-19.195C239.818,-19.078 239.525,-18.923 239.361,-18.73C239.197,-18.537 239.115,-18.259 239.115,-17.896Z" style="fill:white;fill-rule:nonzero;"/>
                            </g>
                            <g transform="matrix(1,0,0,1,-463.291,6.68578)">
                                <path d="M259.506,-9.738L259.506,-1.828C259.506,-1.477 259.591,-1.204 259.761,-1.011C259.931,-0.817 260.221,-0.668 260.631,-0.563L260.631,0L253.143,0L253.143,-0.563C253.564,-0.68 253.857,-0.832 254.021,-1.02C254.186,-1.207 254.268,-1.477 254.268,-1.828L254.268,-22.148C254.268,-22.512 254.186,-22.787 254.021,-22.975C253.857,-23.162 253.564,-23.314 253.143,-23.432L253.143,-23.994L268.119,-23.994C269.865,-23.994 271.251,-23.877 272.276,-23.643C273.302,-23.408 274.207,-23.004 274.992,-22.43C275.801,-21.832 276.434,-21.047 276.891,-20.074C277.348,-19.066 277.576,-18 277.576,-16.875C277.576,-15.258 277.143,-13.84 276.275,-12.621C275.525,-11.578 274.532,-10.837 273.296,-10.397C272.06,-9.958 270.334,-9.738 268.119,-9.738L259.506,-9.738ZM259.506,-13.693L267.504,-13.693C269.098,-13.693 270.217,-13.863 270.861,-14.203C271.271,-14.426 271.603,-14.78 271.854,-15.267C272.106,-15.753 272.232,-16.289 272.232,-16.875C272.232,-17.449 272.106,-17.979 271.854,-18.466C271.603,-18.952 271.271,-19.307 270.861,-19.529C270.229,-19.869 269.109,-20.039 267.504,-20.039L259.506,-20.039L259.506,-13.693Z" style="fill:white;fill-rule:nonzero;"/>
                            </g>
                            <g transform="matrix(1,0,0,1,-463.291,6.68578)">
                                <path d="M286.084,-8.086L286.084,-1.808C286.084,-1.445 286.166,-1.167 286.33,-0.974C286.494,-0.781 286.787,-0.621 287.209,-0.492L287.209,0L280.248,0L280.248,-0.492C280.658,-0.598 280.948,-0.75 281.118,-0.949C281.288,-1.148 281.373,-1.43 281.373,-1.793L281.373,-17.895C281.373,-18.258 281.291,-18.533 281.127,-18.721C280.963,-18.908 280.67,-19.066 280.248,-19.195L280.248,-19.688L293.15,-19.688C294.826,-19.688 296.104,-19.603 296.982,-19.433C297.861,-19.263 298.646,-18.955 299.338,-18.51C300.756,-17.584 301.465,-16.072 301.465,-13.975C301.465,-12.381 301.028,-11.136 300.155,-10.239C299.282,-9.343 297.873,-8.695 295.928,-8.297L299.654,-3.105C300.334,-2.147 300.876,-1.495 301.28,-1.15C301.685,-0.805 302.145,-0.586 302.66,-0.492L302.66,0L294.381,0L294.381,-0.492C294.991,-0.656 295.296,-0.919 295.296,-1.281C295.296,-1.539 295.108,-1.93 294.732,-2.456L290.8,-8.086L286.084,-8.086ZM286.084,-11.654L293.186,-11.654C294.264,-11.654 295.061,-11.771 295.576,-12.006C296.303,-12.322 296.666,-12.949 296.666,-13.887C296.666,-14.719 296.411,-15.299 295.901,-15.627C295.392,-15.955 294.486,-16.119 293.186,-16.119L286.084,-16.119L286.084,-11.654Z" style="fill:white;fill-rule:nonzero;"/>
                            </g>
                            <g transform="matrix(1,0,0,1,-463.291,6.68578)">
                                <path d="M320.776,-4.922L311.722,-4.922L310.702,-2.777C310.456,-2.262 310.333,-1.857 310.333,-1.564C310.333,-1.002 310.708,-0.645 311.458,-0.492L311.458,0L304.225,0L304.225,-0.492C304.67,-0.563 305.001,-0.697 305.218,-0.896C305.435,-1.096 305.689,-1.488 305.982,-2.074L313.172,-16.629C313.441,-17.18 313.576,-17.66 313.576,-18.07C313.576,-18.551 313.248,-18.926 312.592,-19.195L312.592,-19.688L320.238,-19.688L320.238,-19.195C319.594,-18.938 319.271,-18.539 319.271,-18C319.271,-17.613 319.418,-17.139 319.711,-16.576L327.164,-2.461C327.574,-1.694 327.896,-1.198 328.131,-0.971C328.365,-0.745 328.723,-0.585 329.203,-0.492L329.203,0L321.161,0L321.161,-0.492C321.922,-0.621 322.303,-0.977 322.303,-1.56C322.303,-1.922 322.156,-2.371 321.863,-2.908L320.776,-4.922ZM319.359,-7.682L316.134,-14.014L313.066,-7.682L319.359,-7.682Z" style="fill:white;fill-rule:nonzero;"/>
                            </g>
                            <g transform="matrix(1,0,0,1,-463.291,6.68578)">
                                <path d="M339.473,-8.965L336.674,-6.697L336.674,-1.807C336.674,-1.445 336.756,-1.167 336.92,-0.974C337.084,-0.781 337.377,-0.621 337.799,-0.492L337.799,0L330.838,0L330.838,-0.492C331.248,-0.598 331.538,-0.75 331.708,-0.949C331.878,-1.148 331.963,-1.43 331.963,-1.793L331.963,-17.895C331.963,-18.258 331.881,-18.533 331.717,-18.721C331.553,-18.908 331.26,-19.066 330.838,-19.195L330.838,-19.688L337.799,-19.688L337.799,-19.195C337.377,-19.078 337.084,-18.923 336.92,-18.729C336.756,-18.536 336.674,-18.257 336.674,-17.894L336.674,-11.44L344.084,-17.35C344.634,-17.783 344.909,-18.164 344.909,-18.492C344.909,-18.844 344.57,-19.078 343.89,-19.195L343.89,-19.688L352.74,-19.688L352.74,-19.195C352.295,-19.126 351.923,-18.992 351.624,-18.794C351.325,-18.597 350.584,-17.986 349.4,-16.963L342.775,-11.649L350.068,-3.27C351.006,-2.186 351.677,-1.482 352.081,-1.156C352.485,-0.83 352.951,-0.609 353.479,-0.492L353.479,0L344.858,0L344.858,-0.492C345.503,-0.643 345.825,-0.876 345.825,-1.189C345.825,-1.305 345.787,-1.419 345.711,-1.529C345.635,-1.639 345.362,-1.962 344.893,-2.496L339.473,-8.965Z" style="fill:white;fill-rule:nonzero;"/>
                            </g>
                            <g transform="matrix(1,0,0,1,-463.291,6.68578)">
                                <path d="M361.336,-17.896L361.336,-1.809C361.336,-1.446 361.418,-1.168 361.582,-0.975C361.746,-0.782 362.039,-0.621 362.461,-0.492L362.461,0L355.5,0L355.5,-0.492C355.91,-0.598 356.2,-0.75 356.37,-0.949C356.54,-1.148 356.625,-1.43 356.625,-1.793L356.625,-17.895C356.625,-18.258 356.543,-18.533 356.379,-18.721C356.215,-18.908 355.922,-19.066 355.5,-19.195L355.5,-19.688L362.461,-19.688L362.461,-19.195C362.039,-19.078 361.746,-18.923 361.582,-18.73C361.418,-18.537 361.336,-18.259 361.336,-17.896Z" style="fill:white;fill-rule:nonzero;"/>
                            </g>
                            <g transform="matrix(1,0,0,1,-463.291,6.68578)">
                                <path d="M385.172,-7.066L388.143,-2.725L387.738,-2.426C387.457,-2.625 387.234,-2.725 387.07,-2.725C386.871,-2.725 386.408,-2.508 385.682,-2.074C384.076,-1.137 382.658,-0.486 381.428,-0.123C380.197,0.24 378.779,0.422 377.174,0.422C373.963,0.422 371.344,-0.346 369.316,-1.881C368.168,-2.76 367.254,-3.861 366.574,-5.186C365.848,-6.615 365.484,-8.168 365.484,-9.844C365.484,-12.152 366.152,-14.191 367.488,-15.961C369.586,-18.727 372.803,-20.109 377.139,-20.109C378.744,-20.109 380.171,-19.928 381.419,-19.564C382.667,-19.201 384.088,-18.551 385.682,-17.613C386.408,-17.18 386.871,-16.963 387.07,-16.963C387.234,-16.963 387.457,-17.063 387.738,-17.262L388.143,-16.945L385.172,-12.639L384.785,-12.919C384.797,-13.059 384.809,-13.146 384.82,-13.181C384.832,-13.286 384.838,-13.362 384.838,-13.409C384.838,-13.98 384.047,-14.627 382.465,-15.351C380.965,-16.039 379.453,-16.383 377.93,-16.383C375.797,-16.383 374.039,-15.822 372.656,-14.7C371.074,-13.438 370.283,-11.819 370.283,-9.844C370.283,-7.857 371.074,-6.232 372.656,-4.97C374.051,-3.86 375.809,-3.305 377.93,-3.305C379.594,-3.305 381.252,-3.721 382.904,-4.553C384.193,-5.209 384.838,-5.783 384.838,-6.275C384.838,-6.299 384.82,-6.463 384.785,-6.768L385.172,-7.066Z" style="fill:white;fill-rule:nonzero;"/>
                            </g>
                            <g transform="matrix(1,0,0,1,-463.291,6.68578)">
                                <path d="M411.662,-17.895L411.662,-7.471C411.662,-5.092 411.193,-3.346 410.256,-2.232C408.744,-0.463 405.896,0.422 401.713,0.422C398.912,0.422 396.65,-0.006 394.928,-0.861C393.686,-1.482 392.836,-2.367 392.379,-3.516C391.957,-4.57 391.746,-5.889 391.746,-7.471L391.746,-17.895C391.746,-18.258 391.664,-18.533 391.5,-18.721C391.336,-18.908 391.043,-19.066 390.621,-19.195L390.621,-19.688L397.582,-19.688L397.582,-19.195C397.155,-19.078 396.861,-18.923 396.699,-18.729C396.538,-18.536 396.457,-18.258 396.457,-17.895L396.457,-8.42C396.457,-7.318 396.554,-6.475 396.747,-5.889C396.94,-5.303 397.277,-4.822 397.758,-4.447C398.719,-3.686 400.107,-3.305 401.924,-3.305C403.74,-3.305 405.129,-3.686 406.09,-4.447C406.559,-4.822 406.887,-5.303 407.074,-5.889C407.262,-6.475 407.355,-7.318 407.355,-8.42L407.355,-17.895C407.355,-18.258 407.276,-18.533 407.118,-18.721C406.96,-18.908 406.664,-19.066 406.23,-19.195L406.23,-19.688L412.787,-19.688L412.787,-19.195C412.365,-19.078 412.072,-18.923 411.908,-18.729C411.744,-18.536 411.662,-18.258 411.662,-17.895Z" style="fill:white;fill-rule:nonzero;"/>
                            </g>
                        </g>
                    </g>
                </g>
                <g transform="matrix(0.112009,0,0,0.112009,424.261,36.0895)">
                    <circle cx="540.495" cy="423.574" r="366.207" style="fill:rgb(74,74,74);"/>
                </g>
                <g transform="matrix(0.112009,0,0,0.112009,424.261,36.0895)">
                    <path d="M534.468,477.14C534.468,477.14 591.028,545.569 590.393,577.524C589.758,609.478 563.299,634.905 531.344,634.27C499.389,633.635 473.962,607.176 474.598,575.221C475.233,543.267 534.468,477.14 534.468,477.14Z" style="fill:rgb(68,211,255);"/>
                </g>
                <g transform="matrix(0.112009,0,0,0.112009,424.261,36.0895)">
                    <path d="M444.056,581.818C444.056,581.818 481.822,627.51 481.398,648.847C480.974,670.183 463.306,687.162 441.969,686.737C420.633,686.313 403.654,668.646 404.079,647.309C404.503,625.972 444.056,581.818 444.056,581.818Z" style="fill:white;"/>
                </g>
                <g transform="matrix(0.112009,0,0,0.112009,424.261,36.0895)">
                    <path d="M623.92,581.818C623.92,581.818 661.686,627.51 661.262,648.847C660.838,670.183 643.17,687.162 621.834,686.737C600.497,686.313 583.518,668.646 583.943,647.309C584.367,625.972 623.92,581.818 623.92,581.818Z" style="fill:rgb(174,237,255);"/>
                </g>
                <g transform="matrix(0.112009,0,0,0.112009,424.261,36.0895)">
                    <path d="M468.316,542.152L466.295,542.152L466.283,542.137L466.025,542.136C361.793,540.816 277.566,455.779 277.566,351.222C277.566,245.845 363.118,160.293 468.495,160.293C552.361,160.293 623.665,214.487 649.277,289.715L677.247,289.715C710.712,289.715 742.806,303.008 766.469,326.671C790.131,350.335 803.425,382.428 803.425,415.893L803.425,415.973C803.425,449.438 790.131,481.532 766.469,505.195C742.806,528.858 710.712,542.151 677.247,542.152L597.172,542.152L574.488,499.601L677.249,499.601C699.428,499.601 720.698,490.79 736.381,475.107C752.064,459.424 760.875,438.153 760.874,415.973L760.874,415.893C760.875,393.713 752.064,372.442 736.381,356.759C720.698,341.076 699.428,332.265 677.247,332.265L633.341,332.265C623.53,332.265 614.992,325.556 612.67,316.024C596.858,251.097 538.265,202.843 468.495,202.843C386.602,202.843 320.116,269.33 320.116,351.222C320.116,432.474 385.564,498.563 466.564,499.589L466.89,499.601L491.001,499.601L468.316,542.152Z" style="fill:white;"/>
                </g>
                <g transform="matrix(0.112009,0,0,0.112009,424.261,36.0895)">
                    <path d="M417.986,367.909L532.492,367.909L431.873,461.141L490.772,461.141L293.346,634.282L372.324,522.776L333.661,522.776L417.986,367.909Z" style="fill:rgb(255,182,0);"/>
                </g>
                <g transform="matrix(-1.55012,0,0,1.55012,859.17,-523.913)">
                    <path d="M194,414C193.232,414 192.464,413.707 191.879,413.121C190.707,411.949 190.707,410.051 191.879,408.879L197.879,402.879C199.05,401.707 200.95,401.707 202.121,402.879C203.293,404.051 203.293,405.949 202.121,407.121L196.121,413.121C195.536,413.707 194.768,414 194,414Z" style="fill:rgb(100,123,139);fill-rule:nonzero;"/>
                </g>
                <g transform="matrix(-1.55012,0,0,1.55012,859.17,-523.913)">
                    <path d="M176,434C174.72,434 173.441,433.512 172.464,432.535C170.512,430.583 171,427 172,426L189,409C190,408 193.583,407.512 195.536,409.465C197.488,411.417 197,415 196,416L179,433C178.023,433.977 177.28,434 176,434Z" style="fill:rgb(207,66,44);fill-rule:nonzero;"/>
                </g>
                <g transform="matrix(-1.55012,0,0,1.55012,859.17,-523.913)">
                    <path d="M183,429L176,422L178,420L185,427L183,429Z" style="fill:rgb(240,96,80);fill-rule:nonzero;"/>
                </g>
                <g transform="matrix(-1.55012,0,0,1.55012,859.17,-523.913)">
                    <path d="M187,425L180,418L182,416L189,423L187,425Z" style="fill:rgb(240,96,80);fill-rule:nonzero;"/>
                </g>
                <g transform="matrix(-1.55012,0,0,1.55012,859.17,-523.913)">
                    <path d="M191,421L184,414L186,412L193,419L191,421Z" style="fill:rgb(240,96,80);fill-rule:nonzero;"/>
                </g>
                <g transform="matrix(-1.55012,0,0,1.55012,859.17,-523.913)">
                    <path d="M231,393C231,403.493 222.493,412 212,412C201.507,412 193,403.493 193,393C193,382.507 201.507,374 212,374C222.493,374 231,382.507 231,393Z" style="fill:rgb(51,73,91);fill-rule:nonzero;"/>
                </g>
                <g transform="matrix(-1.55012,0,0,1.55012,859.17,-523.913)">
                    <path d="M227,393C227,401.284 220.284,408 212,408C203.716,408 197,401.284 197,393C197,384.716 203.716,378 212,378C220.284,378 227,384.716 227,393Z" style="fill:rgb(236,242,244);fill-rule:nonzero;"/>
                </g>
                <g transform="matrix(-1.55012,0,0,1.55012,859.17,-523.913)">
                    <path d="M215,385C215,386.656 213.657,388 212,388C210.343,388 209,386.656 209,385C209,383.344 210.343,382 212,382C213.657,382 215,383.344 215,385Z" style="fill:white;fill-rule:nonzero;"/>
                </g>
                <g transform="matrix(0.420321,0,0,0.158234,-603.967,104.882)">
                    <path d="M1869.23,74.303C1869.23,63.873 1865.68,55.419 1861.31,55.419L1543.2,55.419C1538.83,55.419 1535.29,63.873 1535.29,74.303L1535.29,74.304C1535.29,84.733 1538.83,93.188 1543.2,93.188L1861.31,93.188C1865.68,93.188 1869.23,84.733 1869.23,74.304L1869.23,74.303Z" style="fill:rgb(100,173,205);fill-opacity:0.67;"/>
                </g>
                <g transform="matrix(0.216101,0,0,0.0984736,-79.5104,45.7772)">
                    <path d="M1869.23,74.299C1869.23,63.871 1865.38,55.419 1860.62,55.419L1543.89,55.419C1539.14,55.419 1535.29,63.871 1535.29,74.299L1535.29,74.308C1535.29,84.735 1539.14,93.188 1543.89,93.188L1860.62,93.188C1865.38,93.188 1869.23,84.735 1869.23,74.308L1869.23,74.299Z" style="fill:rgb(100,173,205);fill-opacity:0.67;"/>
                </g>
                <g transform="matrix(0.241519,0,0,0.186876,-51.183,103.295)">
                    <path d="M1869.23,74.301C1869.23,63.873 1862.69,55.419 1854.62,55.419L1549.9,55.419C1541.83,55.419 1535.29,63.873 1535.29,74.301L1535.29,74.305C1535.29,84.734 1541.83,93.188 1549.9,93.188L1854.62,93.188C1862.69,93.188 1869.23,84.734 1869.23,74.305L1869.23,74.301Z" style="fill:rgb(100,173,205);fill-opacity:0.67;"/>
                </g>
                <g transform="matrix(0.246839,0,0,0.186876,-255.194,33.8199)">
                    <path d="M1869.23,74.301C1869.23,69.293 1867.72,64.49 1865.04,60.949C1862.36,57.408 1858.72,55.419 1854.93,55.419L1549.58,55.419C1545.79,55.419 1542.15,57.408 1539.47,60.949C1536.79,64.49 1535.29,69.293 1535.29,74.301L1535.29,74.305C1535.29,79.313 1536.79,84.116 1539.47,87.657C1542.15,91.198 1545.79,93.188 1549.58,93.188L1854.93,93.188C1858.72,93.188 1862.36,91.198 1865.04,87.657C1867.72,84.116 1869.23,79.313 1869.23,74.305L1869.23,74.301Z" style="fill:rgb(100,173,205);fill-opacity:0.67;"/>
                </g>
            </g>
        </g>
    </g>
</svg>
