<?xml version="1.0" encoding="UTF-8" standalone="no"?><!DOCTYPE svg PUBLIC "-//W3C//DTD SVG 1.1//EN" "http://www.w3.org/Graphics/SVG/1.1/DTD/svg11.dtd"><svg width="100%" height="100%" viewBox="0 0 540 540" version="1.1" xmlns="http://www.w3.org/2000/svg" xmlns:xlink="http://www.w3.org/1999/xlink" xml:space="preserve" xmlns:serif="http://www.serif.com/" style="fill-rule:evenodd;clip-rule:evenodd;stroke-linecap:round;stroke-linejoin:round;stroke-miterlimit:1.5;"><g><g><path d="M270.001,440.058c-102.857,-0 -186.24,-83.383 -186.24,-186.241c-0,-72.842 41.822,-135.92 102.761,-166.528c-7.001,7.696 -9.922,13.684 -9.922,13.684c-0.378,1.336 -0.759,2.675 -1.11,4.025c-4.573,17.176 -7.084,35.863 -7.084,55.4c0,8.399 0.463,16.643 1.354,24.669l0.008,0.021c8.077,72.649 51.176,128.107 103.154,128.107c57.726,0 104.516,-68.401 104.516,-152.797c0,-21.078 -2.923,-41.154 -8.194,-59.425c0,0 -2.118,-3.6 -6.691,-8.806c55.983,32.119 93.686,92.482 93.686,161.65c0,102.858 -83.382,186.241 -186.238,186.241Z" style="fill:#fff5ce;fill-rule:nonzero;"/><path d="M419.995,444.423l-305.861,-0c0.431,-8.411 1.067,-16.341 1.717,-23.557c0.058,-0.744 0.14,-1.482 0.228,-2.217c3.334,-29.289 23.275,-54.038 50.874,-64.361l15.102,-5.461l6.184,-2.238c5.868,-1.796 12.576,-3.006 20.222,-3.574l115.895,-1.761c12.526,1.178 22.794,4.014 31.076,8.282l17.058,7.247c10.81,4.6 20.686,11.194 28.856,19.631c14.691,15.184 15.348,27.35 16.985,45.551c0.63,6.899 1.228,14.457 1.664,22.458Z" style="fill:#797979;fill-rule:nonzero;"/><path d="M308,270.026l0,97.556c-24.95,18.874 -49.895,18.874 -74.846,-0l0,-97.556l74.846,0Z" style="fill:#f4a982;fill-rule:nonzero;"/><path d="M377.438,160.398c0,84.396 -46.79,152.797 -104.516,152.797c-51.978,0 -95.077,-55.458 -103.154,-128.107l-0.008,-0.021c-0.891,-8.026 -1.354,-16.27 -1.354,-24.669c0,-19.537 2.511,-38.224 7.084,-55.4c0.351,-1.35 0.732,-2.689 1.11,-4.025c0,0 22.856,-46.863 93.976,-46.863c71.125,-0 98.668,46.863 98.668,46.863c5.271,18.271 8.194,38.347 8.194,59.425Z" style="fill:#f4a982;fill-rule:nonzero;"/><path d="M233.154,340.923c-14.237,0 -21.514,11.545 -21.514,25.78l-0,49.626l53.768,-34.589c0,-0 -32.254,-16.924 -32.254,-40.817Z" style="fill:#fcfaf9;fill-rule:nonzero;"/><path d="M308,340.923c14.237,0 22.036,11.545 22.036,25.78l-0,49.626l-52.611,-34.589c-0,-0 30.575,-16.924 30.575,-40.817Z" style="fill:#fcfaf9;fill-rule:nonzero;"/><path d="M329.596,110.845c-24.622,4.439 -58.141,5.3 -87.419,-11.92c-54.167,-31.858 -66.687,6.073 -66.687,6.073c-0,0 -24.755,-42.088 22.753,-73.519c26.451,-17.495 49.336,-20.492 68.817,-18.075c15.527,1.925 28.891,7.289 40.184,11.499c25.478,9.5 49.875,-12.228 49.875,-12.228l0.009,0.006c0.46,0.278 15.143,9.289 19.387,30.551c6.325,31.581 -15.215,61.913 -46.919,67.613Z" style="fill:#813124;fill-rule:nonzero;"/><path d="M329.596,110.845c-24.622,4.439 -58.141,5.3 -87.419,-11.92c-54.167,-31.858 -66.687,6.073 -66.687,6.073c-0,0 -24.755,-42.088 22.753,-73.519c26.451,-17.495 49.336,-20.492 68.817,-18.075c0,0 -38.341,4.532 -33.903,32.682c4.429,28.135 52.541,45.955 88.29,36.112c35.74,-9.852 54.359,-39.601 35.681,-69.517c0.46,0.278 15.143,9.289 19.387,30.551c6.325,31.581 -15.215,61.913 -46.919,67.613Z" style="fill:#5c1419;fill-rule:nonzero;"/><path d="M174.242,86.156c-0,-0 -19.071,16.991 -15.313,38.517c3.759,21.526 9.671,45.038 9.671,45.038l7.364,0l0,-30.974c0,0 18.691,-9.178 13.057,-54.075l-14.779,1.494Z" style="fill:#5c1419;fill-rule:nonzero;"/><path d="M366.549,86.156c0,-0 19.074,16.991 15.316,38.517c-3.765,21.526 -4.623,45.038 -4.623,45.038l-9.07,0l-3.348,-30.974c-0,0 -19.142,-17.293 -9.63,-54.075l11.355,1.494Z" style="fill:#5c1419;fill-rule:nonzero;"/><path d="M365.278,240.749c17.483,1.872 33.174,-10.787 35.04,-28.264l3.404,-31.768c1.866,-17.483 -10.787,-33.171 -28.27,-35.04l-10.174,95.072Z" style="fill:#243048;fill-rule:nonzero;"/><path d="M388.069,171.864c0.982,-0.02 1.972,0.015 2.971,0.12c12.799,1.371 22.065,12.858 20.694,25.654c-1.368,12.799 -12.855,22.062 -25.654,20.694c-0.999,-0.108 -1.974,-0.281 -2.929,-0.507l4.918,-45.961Z" style="fill:#243048;fill-rule:nonzero;"/><path d="M177.74,240.749c-17.484,1.872 -33.168,-10.787 -35.04,-28.264l-3.398,-31.768c-1.872,-17.483 10.78,-33.171 28.263,-35.04l10.175,95.072Z" style="fill:#243048;fill-rule:nonzero;"/><path d="M154.951,171.864c-0.981,-0.02 -1.972,0.015 -2.973,0.12c-12.797,1.371 -22.063,12.858 -20.695,25.654c1.371,12.799 12.855,22.062 25.654,20.694c0.999,-0.108 1.975,-0.281 2.93,-0.507l-4.916,-45.961Z" style="fill:#243048;fill-rule:nonzero;"/><path d="M393.217,153.426l-7.31,-0c0,-62.551 -50.891,-113.439 -113.439,-113.439c-62.554,-0 -113.442,50.888 -113.442,113.439l-7.309,-0c-0,-66.582 54.166,-120.749 120.751,-120.749c66.579,0 120.749,54.167 120.749,120.749Z" style="fill:#243048;fill-rule:nonzero;"/><path d="M255.166,312.009c-47.501,-0 -70.545,-23.506 -81.519,-43.231c-11.806,-21.224 -12.377,-42.17 -12.395,-43.052l7.307,-0.158c0.005,0.202 0.591,20.24 11.609,39.894c14.592,26.037 39.827,39.241 74.998,39.241l0,7.306Z" style="fill:#243048;fill-rule:nonzero;"/><path d="M275.837,316.216l-20.955,-0c-5.065,-0 -9.166,-4.108 -9.166,-9.17c-0,-5.062 4.101,-9.166 9.166,-9.166l20.955,-0c5.065,-0 9.169,4.104 9.169,9.166c0,5.062 -4.104,9.17 -9.169,9.17Z" style="fill:#243048;fill-rule:nonzero;"/><g><path d="M474.523,488.061c0,-9.841 -3.909,-19.28 -10.869,-26.24c-6.959,-6.959 -16.398,-10.869 -26.24,-10.869l-331.868,0c-9.842,0 -19.281,3.91 -26.24,10.869c-6.96,6.96 -10.869,16.399 -10.869,26.24l-0,3.302c-0,9.842 3.909,19.28 10.869,26.24c6.959,6.959 16.398,10.869 26.24,10.869l331.868,-0c9.842,-0 19.281,-3.91 26.24,-10.869c6.96,-6.96 10.869,-16.398 10.869,-26.24l0,-3.302Z" style="fill:none;"/><clipPath id="_clip1"><path d="M474.523,488.061c0,-9.841 -3.909,-19.28 -10.869,-26.24c-6.959,-6.959 -16.398,-10.869 -26.24,-10.869l-331.868,0c-9.842,0 -19.281,3.91 -26.24,10.869c-6.96,6.96 -10.869,16.399 -10.869,26.24l-0,3.302c-0,9.842 3.909,19.28 10.869,26.24c6.959,6.959 16.398,10.869 26.24,10.869l331.868,-0c9.842,-0 19.281,-3.91 26.24,-10.869c6.96,-6.96 10.869,-16.398 10.869,-26.24l0,-3.302Z"/></clipPath><g clip-path="url(#_clip1)"><rect x="333.586" y="450.952" width="140.937" height="77.519" style="fill:#006d9c;"/></g><path d="M474.523,488.061c0,-9.841 -3.909,-19.28 -10.869,-26.24c-6.959,-6.959 -16.398,-10.869 -26.24,-10.869l-331.868,0c-9.842,0 -19.281,3.91 -26.24,10.869c-6.96,6.96 -10.869,16.399 -10.869,26.24l-0,3.302c-0,9.842 3.909,19.28 10.869,26.24c6.959,6.959 16.398,10.869 26.24,10.869l331.868,-0c9.842,-0 19.281,-3.91 26.24,-10.869c6.96,-6.96 10.869,-16.398 10.869,-26.24l0,-3.302Z" style="fill:none;stroke:#29abe2;stroke-width:7.83px;"/><g><path d="M143.244,489.714c0,26.331 -21.345,47.672 -47.68,47.672c-26.326,-0 -47.667,-21.341 -47.667,-47.672c0,-26.33 21.341,-47.675 47.667,-47.675c26.335,-0 47.68,21.345 47.68,47.675Z" style="fill:#29abe2;fill-rule:nonzero;"/><path d="M99.933,468.84l-25.206,25.207c-0.565,0.564 -0.882,1.334 -0.882,2.131l0,8.376c0,0.802 0.317,1.567 0.882,2.131l3.903,3.899c1.171,1.175 3.078,1.175 4.258,-0l7.704,-7.704c1.171,-1.176 1.171,-3.083 0,-4.258l-1.361,-1.362c-1.176,-1.175 -1.176,-3.083 -0,-4.258l9.597,-9.597c1.175,-1.176 3.083,-1.176 4.253,-0l1.367,1.361c1.175,1.176 3.078,1.176 4.258,0l7.704,-7.704c1.175,-1.175 1.175,-3.083 -0,-4.258l-3.96,-3.964c-0.564,-0.564 -1.333,-0.881 -2.131,-0.881l-8.254,-0c-0.798,-0 -1.567,0.317 -2.132,0.881Z" style="fill:#fff;fill-rule:nonzero;"/></g><g transform="matrix(1.19757,0,0,1.19757,43.5451,-907.601)"><text x="129.516px" y="1162.74px" style="font-family:'ArialRoundedMTBold', 'Arial Rounded MT Bold', sans-serif;font-size:24px;fill:#29abe2;">CALL</text><text x="111.387px" y="1186.74px" style="font-family:'ArialRoundedMTBold', 'Arial Rounded MT Bold', sans-serif;font-size:24px;fill:#29abe2;">CENTER</text></g><text x="348.336px" y="508.444px" style="font-family:'ArialRoundedMTBold', 'Arial Rounded MT Bold', sans-serif;font-size:54.612px;fill:#fff;">196</text></g></g></g></svg>