<?xml version="1.0" encoding="UTF-8" standalone="no"?>
<!DOCTYPE svg PUBLIC "-//W3C//DTD SVG 1.1//EN" "http://www.w3.org/Graphics/SVG/1.1/DTD/svg11.dtd">
<svg width="100%" height="100%" viewBox="0 0 4700 420" version="1.1" xmlns="http://www.w3.org/2000/svg" xmlns:xlink="http://www.w3.org/1999/xlink" xml:space="preserve" xmlns:serif="http://www.serif.com/" style="fill-rule:evenodd;clip-rule:evenodd;stroke-linejoin:round;stroke-miterlimit:2;">
    <g transform="matrix(1.25333,0,0,1.12,-43.2997,2.84217e-13)">
        <g transform="matrix(0.797874,0,0,0.619367,34.5477,57.4329)">
            <path d="M4700,210C4700,94.02 4634.78,-0 4554.32,-0L145.675,0C107.04,-0 69.987,22.125 42.667,61.508C15.348,100.89 -0,154.304 0,210L0,210C0,325.98 65.221,420 145.675,420L4554.32,420C4634.78,420 4700,325.98 4700,210L4700,210Z" style="fill:rgb(235,235,235);"/>
        </g>
        <g transform="matrix(1.08514,0,0,1.08514,-118.432,47.6365)">
            <g transform="matrix(0.654539,0,0,0.221836,207.716,57.5591)">
                <path d="M1018.9,0L63.599,0C28.474,0 0,94.017 0,209.992L0,210.008C0,325.983 28.474,420 63.599,420L1018.9,420L1018.9,0Z" style="fill:rgb(0,153,102);"/>
            </g>
            <g transform="matrix(0.654539,0,0,0.221836,874.63,57.5591)">
                <rect x="0" y="0" width="1018.9" height="420" style="fill:rgb(255,222,51);"/>
            </g>
            <g transform="matrix(0.654539,0,0,0.221836,2208.46,57.5591)">
                <rect x="0" y="0" width="1018.9" height="420" style="fill:rgb(102,0,153);"/>
            </g>
            <g transform="matrix(0.654539,0,0,0.221836,2875.37,57.5591)">
                <path d="M1018.9,209.992C1018.9,94.017 990.431,0 955.306,-0L0,0L0,420L955.306,420C990.431,420 1018.9,325.983 1018.9,210.008L1018.9,209.992Z" style="fill:rgb(126,0,35);"/>
            </g>
            <g transform="matrix(0.32727,0,0,0.221836,1875,57.5591)">
                <rect x="0" y="0" width="1018.9" height="420" style="fill:rgb(204,0,51);"/>
            </g>
            <g transform="matrix(0.32727,0,0,0.221836,1541.54,57.5591)">
                <rect x="0" y="0" width="1018.9" height="420" style="fill:rgb(255,153,51);"/>
            </g>
            <g transform="matrix(0.797872,0,0,0.892857,193.771,199.821)">
                <text x="0px" y="0px" style="font-family:'GoodTimesRg-Regular', 'Good Times', sans-serif;font-size:50px;">0</text>
            </g>
            <g transform="matrix(0.797872,0,0,0.892857,837.054,199.821)">
                <text x="0px" y="0px" style="font-family:'GoodTimesRg-Regular', 'Good Times', sans-serif;font-size:50px;">50</text>
            </g>
            <g transform="matrix(0.797872,0,0,0.892857,1484.82,199.821)">
                <text x="0px" y="0px" style="font-family:'GoodTimesRg-Regular', 'Good Times', sans-serif;font-size:50px;">100</text>
            </g>
            <g transform="matrix(0.797872,0,0,0.892857,1837.16,199.821)">
                <text x="0px" y="0px" style="font-family:'GoodTimesRg-Regular', 'Good Times', sans-serif;font-size:50px;">150</text>
            </g>
            <g transform="matrix(0.797872,0,0,0.892857,2143.5,199.821)">
                <text x="0px" y="0px" style="font-family:'GoodTimesRg-Regular', 'Good Times', sans-serif;font-size:50px;">200</text>
            </g>
            <g transform="matrix(0.797872,0,0,0.892857,2798.83,199.821)">
                <text x="0px" y="0px" style="font-family:'GoodTimesRg-Regular', 'Good Times', sans-serif;font-size:50px;">300</text>
            </g>
            <g transform="matrix(0.797872,0,0,0.892857,434.539,119.321)">
                <text x="0px" y="0px" style="font-family:'GoodTimesRg-Regular', 'Good Times', sans-serif;font-size:50px;fill:white;">good</text>
            </g>
            <g transform="matrix(0.797872,0,0,0.892857,634.193,-35.041)">
                <g>
                    <g transform="matrix(1,0,0,1,516.282,172.885)">
                        <text x="0px" y="0px" style="font-family:'GoodTimesRg-Regular', 'Good Times', sans-serif;font-size:50px;fill:rgb(114,114,114);">M</text>
                    </g>
                    <g transform="matrix(1,0,0,1,570.032,172.885)">
                        <text x="0px" y="0px" style="font-family:'GoodTimesRg-Regular', 'Good Times', sans-serif;font-size:50px;fill:rgb(114,114,114);">ODERA</text>
                    </g>
                    <g transform="matrix(1,0,0,1,789.382,172.885)">
                        <text x="0px" y="0px" style="font-family:'GoodTimesRg-Regular', 'Good Times', sans-serif;font-size:50px;fill:rgb(114,114,114);">TE</text>
                    </g>
                </g>
            </g>
            <g transform="matrix(0.797872,0,0,0.892857,1296.34,-35.041)">
                <g>
                    <g transform="matrix(1,0,0,1,516.282,172.885)">
                        <text x="0px" y="0px" style="font-family:'GoodTimesRg-Regular', 'Good Times', sans-serif;font-size:50px;fill:white;">UNHEAL</text>
                    </g>
                    <g transform="matrix(1,0,0,1,763.432,172.885)">
                        <text x="0px" y="0px" style="font-family:'GoodTimesRg-Regular', 'Good Times', sans-serif;font-size:50px;fill:white;">THY</text>
                    </g>
                </g>
            </g>
            <g transform="matrix(0.797872,0,0,0.892857,1905.09,-35.041)">
                <g>
                    <g transform="matrix(1,0,0,1,516.282,172.885)">
                        <text x="0px" y="0px" style="font-family:'GoodTimesRg-Regular', 'Good Times', sans-serif;font-size:50px;fill:white;">VER</text>
                    </g>
                    <g transform="matrix(1,0,0,1,645.282,172.885)">
                        <text x="0px" y="0px" style="font-family:'GoodTimesRg-Regular', 'Good Times', sans-serif;font-size:50px;fill:white;">Y UNHEAL</text>
                    </g>
                    <g transform="matrix(1,0,0,1,953.432,172.885)">
                        <text x="0px" y="0px" style="font-family:'GoodTimesRg-Regular', 'Good Times', sans-serif;font-size:50px;fill:white;">THY</text>
                    </g>
                </g>
            </g>
            <g transform="matrix(0.797872,0,0,0.892857,3092.48,119.321)">
                <text x="0px" y="0px" style="font-family:'GoodTimesRg-Regular', 'Good Times', sans-serif;font-size:50px;fill:white;">HAZARD</text>
            </g>
        </g>
    </g>
</svg>
