<?xml version="1.0" encoding="UTF-8" standalone="no"?>
<!DOCTYPE svg PUBLIC "-//W3C//DTD SVG 1.1//EN" "http://www.w3.org/Graphics/SVG/1.1/DTD/svg11.dtd">
<svg width="100%" height="100%" viewBox="0 0 400 4500" version="1.1" xmlns="http://www.w3.org/2000/svg" xmlns:xlink="http://www.w3.org/1999/xlink" xml:space="preserve" xmlns:serif="http://www.serif.com/" style="fill-rule:evenodd;clip-rule:evenodd;stroke-linejoin:round;stroke-miterlimit:2;">
    <g transform="matrix(1.19365,0,0,1.07234,0,0)">
        <g transform="matrix(0.837768,0,0,0.93254,0,0)">
            <path d="M250,0C289.782,-0 327.936,15.804 356.066,43.934C384.196,72.064 400,110.218 400,150L400,4350C400,4389.78 384.196,4427.94 356.066,4456.07C327.936,4484.2 289.782,4500 250,4500L0,4500L0,0L250,0Z" style="fill:rgb(33,33,33);"/>
        </g>
        <g transform="matrix(0.950733,0,0,1,9.87746,0)">
            <g>
                <g transform="matrix(0.711986,0,0,0.742135,-1864.91,3280.22)">
                    <path d="M2815.05,247.568L2814.01,247.568L2814.01,247.561L2813.87,247.56C2760.38,246.882 2717.14,203.236 2717.14,149.57C2717.14,95.484 2761.06,51.573 2815.14,51.573C2858.19,51.573 2894.79,79.389 2907.93,118.001L2922.29,118.001C2939.46,118.001 2955.94,124.824 2968.08,136.969C2980.23,149.115 2987.05,165.587 2987.05,182.764L2987.05,182.805C2987.05,199.981 2980.23,216.454 2968.08,228.599C2955.94,240.745 2939.46,247.568 2922.29,247.568L2881.19,247.568L2869.55,225.728L2922.29,225.728C2933.67,225.728 2944.59,221.206 2952.64,213.156C2960.69,205.107 2965.21,194.189 2965.21,182.805L2965.21,182.764C2965.21,171.38 2960.69,160.462 2952.64,152.412C2944.59,144.363 2933.67,139.84 2922.29,139.84L2899.75,139.84C2894.72,139.84 2890.33,136.397 2889.14,131.504C2881.03,98.179 2850.95,73.412 2815.14,73.412C2773.11,73.412 2738.98,107.538 2738.98,149.57C2738.98,191.274 2772.58,225.195 2814.15,225.722L2814.32,225.728L2826.69,225.728L2815.05,247.568Z" style="fill:white;"/>
                </g>
                <g transform="matrix(0.711986,0,0,0.742135,-1864.94,2840)">
                    <path d="M2815.05,247.568L2814.01,247.568L2814.01,247.561L2813.87,247.56C2760.38,246.882 2717.14,203.236 2717.14,149.57C2717.14,95.484 2761.06,51.573 2815.14,51.573C2858.19,51.573 2894.79,79.389 2907.93,118.001L2922.29,118.001C2939.46,118.001 2955.94,124.824 2968.08,136.969C2980.23,149.115 2987.05,165.587 2987.05,182.764L2987.05,182.805C2987.05,199.981 2980.23,216.454 2968.08,228.599C2955.94,240.745 2939.46,247.568 2922.29,247.568L2881.19,247.568L2869.55,225.728L2922.29,225.728C2933.67,225.728 2944.59,221.206 2952.64,213.156C2960.69,205.107 2965.21,194.189 2965.21,182.805L2965.21,182.764C2965.21,171.38 2960.69,160.462 2952.64,152.412C2944.59,144.363 2933.67,139.84 2922.29,139.84L2899.75,139.84C2894.72,139.84 2890.33,136.397 2889.14,131.504C2881.03,98.179 2850.95,73.412 2815.14,73.412C2773.11,73.412 2738.98,107.538 2738.98,149.57C2738.98,191.274 2772.58,225.195 2814.15,225.722L2814.32,225.728L2826.69,225.728L2815.05,247.568Z" style="fill:white;"/>
                </g>
                <g transform="matrix(0.564825,0,0,0.588742,-1140.66,2496.8)">
                    <path d="M2310.17,214.2C2310.17,214.2 2339.2,249.322 2338.87,265.723C2338.55,282.125 2324.97,295.176 2308.57,294.849C2292.16,294.523 2279.11,280.943 2279.44,264.542C2279.77,248.14 2310.17,214.2 2310.17,214.2Z" style="fill:rgb(68,211,255);"/>
                </g>
                <g transform="matrix(0.711986,0,0,0.742135,-1480.99,3280.22)">
                    <path d="M2310.17,214.2C2310.17,214.2 2339.2,249.322 2338.87,265.723C2338.55,282.125 2324.97,295.176 2308.57,294.849C2292.16,294.523 2279.11,280.943 2279.44,264.542C2279.77,248.14 2310.17,214.2 2310.17,214.2Z" style="fill:rgb(68,211,255);"/>
                    <g transform="matrix(0.544939,0,0,0.544939,1050.81,183.081)">
                        <path d="M2310.17,214.2C2310.17,214.2 2339.2,249.322 2338.87,265.723C2338.55,282.125 2324.97,295.176 2308.57,294.849C2292.16,294.523 2279.11,280.943 2279.44,264.542C2279.77,248.14 2310.17,214.2 2310.17,214.2Z" style="fill:rgb(68,211,255);"/>
                    </g>
                </g>
                <g transform="matrix(0.711986,0,0,0.742135,-1481.02,2840)">
                    <path d="M2310.17,214.2C2310.17,214.2 2339.2,249.322 2338.87,265.723C2338.55,282.125 2324.97,295.176 2308.57,294.849C2292.16,294.523 2279.11,280.943 2279.44,264.542C2279.77,248.14 2310.17,214.2 2310.17,214.2Z" style="fill:rgb(68,211,255);"/>
                </g>
                <g transform="matrix(0.711986,0,0,0.742135,-1480.99,3280.22)">
                    <path d="M2263.77,267.928C2263.77,267.928 2283.15,291.38 2282.94,302.331C2282.72,313.283 2273.65,321.997 2262.7,321.779C2251.75,321.561 2243.03,312.493 2243.25,301.542C2243.47,290.59 2263.77,267.928 2263.77,267.928Z" style="fill:white;"/>
                </g>
                <g transform="matrix(0.711986,0,0,0.742135,-1481.02,2840)">
                    <path d="M2263.77,267.928C2263.77,267.928 2283.15,291.38 2282.94,302.331C2282.72,313.283 2273.65,321.997 2262.7,321.779C2251.75,321.561 2243.03,312.493 2243.25,301.542C2243.47,290.59 2263.77,267.928 2263.77,267.928Z" style="fill:white;"/>
                </g>
                <g transform="matrix(0.711986,0,0,0.742135,-1480.99,3280.22)">
                    <path d="M2356.09,267.928C2356.09,267.928 2375.47,291.38 2375.26,302.331C2375.04,313.283 2365.97,321.997 2355.02,321.779C2344.07,321.561 2335.35,312.493 2335.57,301.542C2335.79,290.59 2356.09,267.928 2356.09,267.928Z" style="fill:rgb(174,237,255);"/>
                </g>
                <g transform="matrix(0.711986,0,0,0.742135,-1481.02,2840)">
                    <path d="M2356.09,267.928C2356.09,267.928 2375.47,291.38 2375.26,302.331C2375.04,313.283 2365.97,321.997 2355.02,321.779C2344.07,321.561 2335.35,312.493 2335.57,301.542C2335.79,290.59 2356.09,267.928 2356.09,267.928Z" style="fill:rgb(174,237,255);"/>
                </g>
                <g transform="matrix(0.711986,0,0,0.742135,-1102.85,2457.75)">
                    <path d="M1744.2,247.568L1743.16,247.568L1743.16,247.561L1743.02,247.56C1689.53,246.882 1646.29,203.236 1646.29,149.57C1646.29,95.484 1690.2,51.573 1744.29,51.573C1787.34,51.573 1823.93,79.389 1837.08,118.001L1851.44,118.001C1868.61,118.001 1885.09,124.824 1897.23,136.969C1909.38,149.115 1916.2,165.587 1916.2,182.764L1916.2,182.805C1916.2,199.981 1909.38,216.454 1897.23,228.599C1885.09,240.745 1868.61,247.568 1851.44,247.568L1810.34,247.568L1798.69,225.728L1851.44,225.728C1862.82,225.728 1873.74,221.206 1881.79,213.156C1889.84,205.107 1894.36,194.189 1894.36,182.805L1894.36,182.764C1894.36,171.38 1889.84,160.462 1881.79,152.412C1873.74,144.363 1862.82,139.84 1851.44,139.84L1828.9,139.84C1823.87,139.84 1819.48,136.397 1818.29,131.504C1810.18,98.179 1780.1,73.412 1744.29,73.412C1702.26,73.412 1668.13,107.538 1668.13,149.57C1668.13,191.274 1701.73,225.195 1743.3,225.722L1743.47,225.728L1755.84,225.728L1744.2,247.568Z" style="fill:white;"/>
                </g>
                <g transform="matrix(0.711986,0,0,0.742135,-317.208,374.793)">
                    <path d="M638.514,299.637L638.521,299.645L758.885,299.645C777.979,299.645 796.291,292.06 809.793,278.559C823.294,265.057 830.879,246.745 830.879,227.651L830.879,227.605C830.879,208.511 823.294,190.199 809.793,176.698C796.291,163.196 777.979,155.611 758.885,155.611L742.926,155.611C728.312,112.688 687.628,81.766 639.776,81.766C579.651,81.766 530.837,130.58 530.837,190.706C530.837,250.363 578.895,298.883 638.367,299.636L638.514,299.637ZM638.86,275.367L638.675,275.36C592.458,274.775 555.115,237.066 555.115,190.706C555.115,143.98 593.051,106.044 639.776,106.044C679.586,106.044 713.017,133.577 722.039,170.623C723.364,176.061 728.236,179.889 733.834,179.889L758.885,179.889C771.541,179.89 783.677,184.917 792.626,193.865C801.574,202.813 806.601,214.95 806.601,227.605L806.601,227.651C806.601,240.306 801.574,252.443 792.626,261.391C783.677,270.34 771.541,275.367 758.886,275.367L638.86,275.367Z" style="fill:white;"/>
                </g>
                <g transform="matrix(0.711986,0,0,0.742135,-317.208,374.793)">
                    <circle cx="747.505" cy="148.396" r="58.487" style="fill:rgb(255,201,0);"/>
                </g>
                <g transform="matrix(1,0,0,1,0,95.2381)">
                    <g transform="matrix(1.1247,0,0,1.17233,-671,1056.97)">
                        <circle cx="747.505" cy="148.396" r="58.487" style="fill:rgb(255,201,0);"/>
                    </g>
                    <g transform="matrix(1.1247,0,0,1.17233,-671,1405.65)">
                        <circle cx="747.505" cy="148.396" r="58.487" style="fill:rgb(255,201,0);"/>
                    </g>
                    <g transform="matrix(1.1247,0,0,1.17233,-671.005,1778.99)">
                        <circle cx="747.505" cy="148.396" r="58.487" style="fill:rgb(255,201,0);"/>
                    </g>
                    <g transform="matrix(0.504701,0,0,0.644662,-519.152,1106.33)">
                        <path d="M1187.89,170.509L1364.91,170.509C1372.27,170.509 1378.24,165.635 1378.24,159.632C1378.24,153.629 1372.27,148.755 1364.91,148.755L1187.89,148.755C1180.53,148.755 1174.56,153.629 1174.56,159.632C1174.56,165.635 1180.53,170.509 1187.89,170.509Z" style="fill:rgb(213,152,1);"/>
                    </g>
                    <g transform="matrix(0.504701,0,0,0.644662,-519.155,1455.01)">
                        <path d="M1187.89,170.509L1364.91,170.509C1372.27,170.509 1378.24,165.635 1378.24,159.632C1378.24,153.629 1372.27,148.755 1364.91,148.755L1187.89,148.755C1180.53,148.755 1174.56,153.629 1174.56,159.632C1174.56,165.635 1180.53,170.509 1187.89,170.509Z" style="fill:rgb(119,119,119);"/>
                    </g>
                    <g transform="matrix(0.504701,0,0,0.644662,-519.155,1828.36)">
                        <path d="M1187.89,170.509L1364.91,170.509C1372.27,170.509 1378.24,165.635 1378.24,159.632C1378.24,153.629 1372.27,148.755 1364.91,148.755L1187.89,148.755C1180.53,148.755 1174.56,153.629 1174.56,159.632C1174.56,165.635 1180.53,170.509 1187.89,170.509Z" style="fill:rgb(248,248,248);"/>
                    </g>
                    <g transform="matrix(0.876298,0,0,0.644662,-960.566,1147.46)">
                        <path d="M1187.89,170.509L1364.91,170.509C1369.15,170.509 1372.59,165.635 1372.59,159.632C1372.59,153.629 1369.15,148.755 1364.91,148.755L1187.89,148.755C1183.65,148.755 1180.21,153.629 1180.21,159.632C1180.21,165.635 1183.65,170.509 1187.89,170.509Z" style="fill:rgb(213,152,1);"/>
                    </g>
                    <g transform="matrix(0.876298,0,0,0.644662,-960.566,1496.14)">
                        <path d="M1187.89,170.509L1364.91,170.509C1369.15,170.509 1372.59,165.635 1372.59,159.632C1372.59,153.629 1369.15,148.755 1364.91,148.755L1187.89,148.755C1183.65,148.755 1180.21,153.629 1180.21,159.632C1180.21,165.635 1183.65,170.509 1187.89,170.509Z" style="fill:rgb(119,119,119);"/>
                    </g>
                    <g transform="matrix(0.876298,0,0,0.644662,-960.569,1869.48)">
                        <path d="M1187.89,170.509L1364.91,170.509C1369.15,170.509 1372.59,165.635 1372.59,159.632C1372.59,153.629 1369.15,148.755 1364.91,148.755L1187.89,148.755C1183.65,148.755 1180.21,153.629 1180.21,159.632C1180.21,165.635 1183.65,170.509 1187.89,170.509Z" style="fill:rgb(248,248,248);"/>
                    </g>
                    <g transform="matrix(0.601665,0,0,1.62666,-566.485,1009.84)">
                        <path d="M1187.89,163.943L1364.91,163.943C1371.08,163.943 1376.09,162.011 1376.09,159.632C1376.09,157.253 1371.08,155.321 1364.91,155.321L1187.89,155.321C1181.72,155.321 1176.71,157.253 1176.71,159.632C1176.71,162.011 1181.72,163.943 1187.89,163.943Z" style="fill:rgb(213,152,1);"/>
                    </g>
                    <g transform="matrix(0.601665,0,0,1.62666,-566.485,1358.53)">
                        <path d="M1187.89,163.943L1364.91,163.943C1371.08,163.943 1376.09,162.011 1376.09,159.632C1376.09,157.253 1371.08,155.321 1364.91,155.321L1187.89,155.321C1181.72,155.321 1176.71,157.253 1176.71,159.632C1176.71,162.011 1181.72,163.943 1187.89,163.943Z" style="fill:rgb(119,119,119);"/>
                    </g>
                    <g transform="matrix(0.601665,0,0,1.62666,-566.485,1731.87)">
                        <path d="M1187.89,163.943L1364.91,163.943C1371.08,163.943 1376.09,162.011 1376.09,159.632C1376.09,157.253 1371.08,155.321 1364.91,155.321L1187.89,155.321C1181.72,155.321 1176.71,157.253 1176.71,159.632C1176.71,162.011 1181.72,163.943 1187.89,163.943Z" style="fill:rgb(248,248,248);"/>
                    </g>
                    <g transform="matrix(0.504701,0,0,1.62666,-519.152,1029.57)">
                        <path d="M1187.89,163.943L1364.91,163.943C1372.27,163.943 1378.24,162.011 1378.24,159.632C1378.24,157.253 1372.27,155.321 1364.91,155.321L1187.89,155.321C1180.53,155.321 1174.56,157.253 1174.56,159.632C1174.56,162.011 1180.53,163.943 1187.89,163.943Z" style="fill:rgb(213,152,1);"/>
                    </g>
                    <g transform="matrix(0.504701,0,0,1.62666,-519.155,1378.26)">
                        <path d="M1187.89,163.943L1364.91,163.943C1372.27,163.943 1378.24,162.011 1378.24,159.632C1378.24,157.253 1372.27,155.321 1364.91,155.321L1187.89,155.321C1180.53,155.321 1174.56,157.253 1174.56,159.632C1174.56,162.011 1180.53,163.943 1187.89,163.943Z" style="fill:rgb(119,119,119);"/>
                    </g>
                    <g transform="matrix(0.504701,0,0,1.62666,-519.155,1751.6)">
                        <path d="M1187.89,163.943L1364.91,163.943C1372.27,163.943 1378.24,162.011 1378.24,159.632C1378.24,157.253 1372.27,155.321 1364.91,155.321L1187.89,155.321C1180.53,155.321 1174.56,157.253 1174.56,159.632C1174.56,162.011 1180.53,163.943 1187.89,163.943Z" style="fill:rgb(248,248,248);"/>
                    </g>
                    <g transform="matrix(0.179405,0,0,1.62666,-28.7987,1029.57)">
                        <path d="M1187.89,163.943L1364.91,163.943C1385.6,163.943 1402.4,162.011 1402.4,159.632C1402.4,157.253 1385.6,155.321 1364.91,155.321L1187.89,155.321C1167.19,155.321 1150.39,157.253 1150.39,159.632C1150.39,162.011 1167.19,163.943 1187.89,163.943Z" style="fill:rgb(213,152,1);"/>
                    </g>
                    <g transform="matrix(0.179405,0,0,1.62666,-28.7948,1378.26)">
                        <path d="M1187.89,163.943L1364.91,163.943C1385.6,163.943 1402.4,162.011 1402.4,159.632C1402.4,157.253 1385.6,155.321 1364.91,155.321L1187.89,155.321C1167.19,155.321 1150.39,157.253 1150.39,159.632C1150.39,162.011 1167.19,163.943 1187.89,163.943Z" style="fill:rgb(119,119,119);"/>
                    </g>
                    <g transform="matrix(0.179405,0,0,1.62666,-28.8048,1751.6)">
                        <path d="M1187.89,163.943L1364.91,163.943C1385.6,163.943 1402.4,162.011 1402.4,159.632C1402.4,157.253 1385.6,155.321 1364.91,155.321L1187.89,155.321C1167.19,155.321 1150.39,157.253 1150.39,159.632C1150.39,162.011 1167.19,163.943 1187.89,163.943Z" style="fill:rgb(248,248,248);"/>
                    </g>
                    <g transform="matrix(0.371595,0,0,0.644662,-337.475,1128.03)">
                        <path d="M1187.89,170.509L1364.91,170.509C1374.9,170.509 1383.01,165.635 1383.01,159.632C1383.01,153.629 1374.9,148.755 1364.91,148.755L1187.89,148.755C1177.9,148.755 1169.79,153.629 1169.79,159.632C1169.79,165.635 1177.9,170.509 1187.89,170.509Z" style="fill:rgb(213,152,1);"/>
                    </g>
                    <g transform="matrix(0.371595,0,0,0.644662,-337.475,1476.71)">
                        <path d="M1187.89,170.509L1364.91,170.509C1374.9,170.509 1383.01,165.635 1383.01,159.632C1383.01,153.629 1374.9,148.755 1364.91,148.755L1187.89,148.755C1177.9,148.755 1169.79,153.629 1169.79,159.632C1169.79,165.635 1177.9,170.509 1187.89,170.509Z" style="fill:rgb(119,119,119);"/>
                    </g>
                    <g transform="matrix(0.371595,0,0,0.644662,-337.475,1850.05)">
                        <path d="M1187.89,170.509L1364.91,170.509C1374.9,170.509 1383.01,165.635 1383.01,159.632C1383.01,153.629 1374.9,148.755 1364.91,148.755L1187.89,148.755C1177.9,148.755 1169.79,153.629 1169.79,159.632C1169.79,165.635 1177.9,170.509 1187.89,170.509Z" style="fill:rgb(248,248,248);"/>
                    </g>
                    <g transform="matrix(0.133465,0,0,0.644662,31.3213,1128.03)">
                        <path d="M1187.89,170.509L1364.91,170.509C1392.73,170.509 1415.31,165.635 1415.31,159.632C1415.31,153.629 1392.73,148.755 1364.91,148.755L1187.89,148.755C1160.07,148.755 1137.49,153.629 1137.49,159.632C1137.49,165.635 1160.07,170.509 1187.89,170.509Z" style="fill:rgb(213,152,1);"/>
                    </g>
                    <g transform="matrix(0.133465,0,0,0.644662,31.3252,1476.71)">
                        <path d="M1187.89,170.509L1364.91,170.509C1392.73,170.509 1415.31,165.635 1415.31,159.632C1415.31,153.629 1392.73,148.755 1364.91,148.755L1187.89,148.755C1160.07,148.755 1137.49,153.629 1137.49,159.632C1137.49,165.635 1160.07,170.509 1187.89,170.509Z" style="fill:rgb(119,119,119);"/>
                    </g>
                    <g transform="matrix(0.133465,0,0,0.644662,31.3152,1850.05)">
                        <path d="M1187.89,170.509L1364.91,170.509C1392.73,170.509 1415.31,165.635 1415.31,159.632C1415.31,153.629 1392.73,148.755 1364.91,148.755L1187.89,148.755C1160.07,148.755 1137.49,153.629 1137.49,159.632C1137.49,165.635 1160.07,170.509 1187.89,170.509Z" style="fill:rgb(248,248,248);"/>
                    </g>
                    <g transform="matrix(5.81847,0,0,6.19035,84.1616,1761.46)">
                        <text x="0px" y="0px" style="font-family:'ArialMT', 'Arial', sans-serif;font-size:12px;fill:white;">MIST</text>
                    </g>
                    <g transform="matrix(5.81847,0,0,6.19035,91.9177,2110.56)">
                        <text x="0px" y="0px" style="font-family:'ArialMT', 'Arial', sans-serif;font-size:12px;fill:white;">FOG</text>
                    </g>
                    <g transform="matrix(5.81847,0,0,6.19035,74.4448,1392.16)">
                        <text x="0px" y="0px" style="font-family:'ArialMT', 'Arial', sans-serif;font-size:12px;fill:white;">HAZE</text>
                    </g>
                </g>
                <g transform="matrix(4.35966e-17,0.796744,-1.17272,8.0357e-17,386.079,1126)">
                    <path d="M1455.79,77.825L1455.79,294.855C1455.79,299.493 1459.56,303.258 1464.19,303.258C1468.83,303.258 1472.6,299.493 1472.6,294.855L1472.6,77.825C1472.6,73.188 1468.83,69.423 1464.19,69.423C1459.56,69.423 1455.79,73.188 1455.79,77.825Z" style="fill:white;fill-opacity:0.12;"/>
                </g>
                <g transform="matrix(4.35966e-17,0.796744,-1.17272,8.0357e-17,386.079,18.6858)">
                    <path d="M1455.79,77.825L1455.79,294.855C1455.79,299.493 1459.56,303.258 1464.19,303.258C1468.83,303.258 1472.6,299.493 1472.6,294.855L1472.6,77.825C1472.6,73.188 1468.83,69.423 1464.19,69.423C1459.56,69.423 1455.79,73.188 1455.79,77.825Z" style="fill:white;fill-opacity:0.12;"/>
                </g>
                <g transform="matrix(0.402233,0,0,0.419107,-47.5465,0.289577)">
                    <circle cx="534.765" cy="408.823" r="191.192" style="fill:rgb(255,201,0);"/>
                </g>
                <g transform="matrix(0.402008,0,0,0.418873,-45.3234,765.959)">
                    <path d="M445.858,605.202L445.87,605.217L667.799,605.217C703.005,605.216 736.769,591.231 761.663,566.337C786.557,541.442 800.542,507.678 800.542,472.473L800.542,472.388C800.542,437.183 786.557,403.419 761.663,378.524C736.769,353.63 703.005,339.645 667.799,339.645L638.373,339.645C611.429,260.503 536.414,203.489 448.185,203.489C337.325,203.489 247.321,293.493 247.321,404.353C247.321,514.35 335.932,603.811 445.587,605.2L445.858,605.202ZM446.496,560.452L446.154,560.439C360.94,559.36 292.086,489.832 292.086,404.353C292.086,318.199 362.031,248.253 448.185,248.253C521.586,248.253 583.227,299.018 599.862,367.323C602.304,377.351 611.288,384.409 621.609,384.409L667.799,384.409C691.134,384.41 713.511,393.679 730.01,410.178C746.509,426.677 755.778,449.055 755.778,472.388L755.778,472.473C755.778,495.806 746.509,518.184 730.01,534.684C713.511,551.182 691.134,560.452 667.801,560.452L446.496,560.452Z" style="fill:white;"/>
                    <path d="M638.355,404.345C586.536,403.688 544.663,361.41 544.663,309.429C544.663,257.039 587.197,214.505 639.586,214.505C684.223,214.505 721.704,245.381 731.82,286.918L756.386,286.918C771.953,286.918 786.882,293.102 797.889,304.11C808.897,315.117 815.08,330.046 815.08,345.613L815.08,345.658C815.08,361.225 808.897,376.154 797.889,387.161C786.882,398.169 771.953,404.353 756.386,404.353L638.355,404.353L638.355,404.345Z" style="fill:white;"/>
                </g>
                <g transform="matrix(0.371223,0,0,0.386796,-48.2415,3710.74)">
                    <path d="M534.468,477.14C534.468,477.14 591.028,545.569 590.393,577.524C589.758,609.478 563.299,634.905 531.344,634.27C499.389,633.635 473.962,607.176 474.598,575.221C475.233,543.267 534.468,477.14 534.468,477.14Z" style="fill:rgb(68,211,255);"/>
                    <path d="M444.056,581.818C444.056,581.818 481.822,627.51 481.398,648.847C480.974,670.183 463.306,687.162 441.969,686.737C420.633,686.313 403.654,668.646 404.079,647.309C404.503,625.972 444.056,581.818 444.056,581.818Z" style="fill:white;"/>
                    <path d="M623.92,581.818C623.92,581.818 661.686,627.51 661.262,648.847C660.838,670.183 643.17,687.162 621.834,686.737C600.497,686.313 583.518,668.646 583.943,647.309C584.367,625.972 623.92,581.818 623.92,581.818Z" style="fill:rgb(174,237,255);"/>
                    <path d="M468.316,542.152L466.295,542.152L466.283,542.137L466.025,542.136C361.793,540.816 277.566,455.779 277.566,351.222C277.566,245.845 363.118,160.293 468.495,160.293C552.361,160.293 623.665,214.487 649.277,289.715L677.247,289.715C710.712,289.715 742.806,303.008 766.469,326.671C790.131,350.335 803.425,382.428 803.425,415.893L803.425,415.973C803.425,449.438 790.131,481.532 766.469,505.195C742.806,528.858 710.712,542.151 677.247,542.152L597.172,542.152L574.488,499.601L677.249,499.601C699.428,499.601 720.698,490.79 736.381,475.107C752.064,459.424 760.875,438.153 760.874,415.973L760.874,415.893C760.875,393.713 752.064,372.442 736.381,356.759C720.698,341.076 699.428,332.265 677.247,332.265L633.341,332.265C623.53,332.265 614.992,325.556 612.67,316.024C596.858,251.097 538.265,202.843 468.495,202.843C386.602,202.843 320.116,269.33 320.116,351.222C320.116,432.474 385.564,498.563 466.564,499.589L466.89,499.601L491.001,499.601L468.316,542.152Z" style="fill:white;"/>
                    <path d="M417.986,367.909L532.492,367.909L431.873,461.141L490.772,461.141L293.346,634.282L372.324,522.776L333.661,522.776L417.986,367.909Z" style="fill:rgb(255,182,0);"/>
                </g>
                <g transform="matrix(4.38497,0,0,4.66523,64.2214,2775.92)">
                    <text x="0px" y="0px" style="font-family:'ArialMT', 'Arial', sans-serif;font-size:12px;fill:white;">RINGAN</text>
                </g>
                <g transform="matrix(5.81847,0,0,6.19035,47.29,2432.39)">
                    <text x="0px" y="0px" style="font-family:'Arial-BoldMT', 'Arial', sans-serif;font-weight:700;font-size:12px;fill:white;">HUJAN</text>
                </g>
                <g transform="matrix(5.81847,0,0,6.19035,45.3466,705.355)">
                    <text x="0px" y="0px" style="font-family:'ArialMT', 'Arial', sans-serif;font-size:12px;fill:white;">CERAH</text>
                </g>
                <g transform="matrix(5.81847,0,0,6.19035,45.3466,359.255)">
                    <text x="0px" y="0px" style="font-family:'ArialMT', 'Arial', sans-serif;font-size:12px;fill:white;">CERAH</text>
                </g>
                <g transform="matrix(5.81847,0,0,6.19035,-369.167,-17313.8)">
                    <g>
                        <g transform="matrix(1,0,0,1,68.891,2920.08)">
                            <text x="0px" y="0px" style="font-family:'ArialMT', 'Arial', sans-serif;font-size:9.375px;fill:white;">BERA</text>
                        </g>
                        <g transform="matrix(1,0,0,1,94.073,2920.08)">
                            <text x="0px" y="0px" style="font-family:'ArialMT', 'Arial', sans-serif;font-size:9.375px;fill:white;">W<tspan x="8.501px 14.754px " y="0px 0px ">AN</tspan></text>
                        </g>
                    </g>
                </g>
                <g transform="matrix(5.81847,0,0,6.19035,-369.167,-16984.5)">
                    <g>
                        <g transform="matrix(1,0,0,1,68.891,2920.08)">
                            <text x="0px" y="0px" style="font-family:'ArialMT', 'Arial', sans-serif;font-size:9.375px;fill:white;">BERA</text>
                        </g>
                        <g transform="matrix(1,0,0,1,94.073,2920.08)">
                            <text x="0px" y="0px" style="font-family:'ArialMT', 'Arial', sans-serif;font-size:9.375px;fill:white;">W<tspan x="8.501px 14.754px " y="0px 0px ">AN</tspan></text>
                        </g>
                    </g>
                </g>
                <g transform="matrix(4.38497,0,0,4.66523,54.7964,3163.32)">
                    <g transform="matrix(12,0,0,12,50.6777,0)">
                    </g>
                    <text x="0px" y="0px" style="font-family:'ArialMT', 'Arial', sans-serif;font-size:12px;fill:white;">SEDANG</text>
                </g>
                <g transform="matrix(4.38497,0,0,4.66523,-246.359,-9988.62)">
                    <g>
                        <g transform="matrix(1,0,0,1,74.756,2921.96)">
                            <text x="0px" y="0px" style="font-family:'ArialMT', 'Arial', sans-serif;font-size:12px;fill:white;">LEBA</text>
                        </g>
                        <g transform="matrix(1,0,0,1,104.551,2921.96)">
                            <text x="0px" y="0px" style="font-family:'ArialMT', 'Arial', sans-serif;font-size:12px;fill:white;">T</text>
                        </g>
                    </g>
                </g>
                <g transform="matrix(4.38497,0,0,4.66523,85.364,4076.48)">
                    <text x="0px" y="0px" style="font-family:'ArialMT', 'Arial', sans-serif;font-size:12px;fill:white;">PETIR</text>
                </g>
            </g>
        </g>
    </g>
</svg>
