<?xml version="1.0" encoding="UTF-8" standalone="no"?>
<!DOCTYPE svg PUBLIC "-//W3C//DTD SVG 1.1//EN" "http://www.w3.org/Graphics/SVG/1.1/DTD/svg11.dtd">
<svg width="100%" height="100%" viewBox="0 0 4700 420" version="1.1" xmlns="http://www.w3.org/2000/svg" xmlns:xlink="http://www.w3.org/1999/xlink" xml:space="preserve" xmlns:serif="http://www.serif.com/" style="fill-rule:evenodd;clip-rule:evenodd;stroke-linejoin:round;stroke-miterlimit:2;">
    <g transform="matrix(1.25333,0,0,1.12,0,0)">
        <g transform="matrix(0.767998,0,0,0.804147,70.2036,18.6292)">
            <path d="M4700,210C4700,154.304 4679.3,100.89 4642.45,61.507C4605.6,22.125 4555.62,0 4503.51,-0L196.492,0C144.379,0 94.401,22.125 57.551,61.507C20.702,100.89 -0,154.304 0,210L-0,210C-0,265.696 20.702,319.11 57.551,358.493C94.401,397.875 144.379,420 196.492,420L4503.51,420C4555.62,420 4605.6,397.875 4642.45,358.493C4679.3,319.11 4700,265.696 4700,210L4700,210Z" style="fill:rgb(221,221,221);"/>
        </g>
        <g transform="matrix(1,0,0,1,0,6.83957)">
            <g transform="matrix(0.654539,0,0,0.221836,207.716,57.5591)">
                <path d="M1018.9,0L63.599,0C28.474,0 0,94.017 0,209.992C0,209.997 0,210.003 0,210.008C0,325.983 28.474,420 63.599,420C286.498,420 1018.9,420 1018.9,420L1018.9,0Z" style="fill:rgb(0,153,102);"/>
            </g>
            <g transform="matrix(0.654539,0,0,0.221836,874.63,57.5591)">
                <rect x="0" y="0" width="1018.9" height="420" style="fill:rgb(255,222,51);"/>
            </g>
            <g transform="matrix(0.654539,0,0,0.221836,2208.46,57.5591)">
                <rect x="0" y="0" width="1018.9" height="420" style="fill:rgb(102,0,153);"/>
            </g>
            <g transform="matrix(0.654539,0,0,0.221836,2875.37,57.5591)">
                <path d="M1018.9,209.992C1018.9,94.017 990.431,0 955.306,-0C732.407,0 0,0 0,0L0,420L955.306,420C990.431,420 1018.9,325.983 1018.9,210.008C1018.9,210.003 1018.9,209.997 1018.9,209.992Z" style="fill:rgb(126,0,35);"/>
            </g>
            <g transform="matrix(0.32727,0,0,0.221836,1875,57.5591)">
                <rect x="0" y="0" width="1018.9" height="420" style="fill:rgb(204,0,51);"/>
            </g>
            <g transform="matrix(0.32727,0,0,0.221836,1541.54,57.5591)">
                <rect x="0" y="0" width="1018.9" height="420" style="fill:rgb(255,153,51);"/>
            </g>
            <g transform="matrix(0.797872,0,0,0.892857,99.3946,-101.496)">
                <g transform="matrix(50,0,0,50,160.185,337.475)">
                </g>
                <text x="118.285px" y="337.475px" style="font-family:'GoodTimesRg-Regular', 'Good Times', sans-serif;font-size:50px;">0</text>
            </g>
            <g transform="matrix(0.797872,0,0,0.892857,742.678,-101.496)">
                <g transform="matrix(50,0,0,50,204.435,337.475)">
                </g>
                <text x="118.285px" y="337.475px" style="font-family:'GoodTimesRg-Regular', 'Good Times', sans-serif;font-size:50px;">50</text>
            </g>
            <g transform="matrix(0.797872,0,0,0.892857,1390.44,-101.496)">
                <g transform="matrix(50,0,0,50,221.335,337.475)">
                </g>
                <text x="118.285px" y="337.475px" style="font-family:'GoodTimesRg-Regular', 'Good Times', sans-serif;font-size:50px;">100</text>
            </g>
            <g transform="matrix(0.797872,0,0,0.892857,1742.78,-101.496)">
                <g transform="matrix(50,0,0,50,223.685,337.475)">
                </g>
                <text x="118.285px" y="337.475px" style="font-family:'GoodTimesRg-Regular', 'Good Times', sans-serif;font-size:50px;">150</text>
            </g>
            <g transform="matrix(0.797872,0,0,0.892857,2049.12,-101.496)">
                <g transform="matrix(50,0,0,50,243.335,337.475)">
                </g>
                <text x="118.285px" y="337.475px" style="font-family:'GoodTimesRg-Regular', 'Good Times', sans-serif;font-size:50px;">200</text>
            </g>
            <g transform="matrix(0.797872,0,0,0.892857,2704.45,-101.496)">
                <g transform="matrix(50,0,0,50,243.435,337.475)">
                </g>
                <text x="118.285px" y="337.475px" style="font-family:'GoodTimesRg-Regular', 'Good Times', sans-serif;font-size:50px;">300</text>
            </g>
            <g transform="matrix(0.797872,0,0,0.892857,22.6117,-35.041)">
                <g transform="matrix(50,0,0,50,701.432,172.885)">
                </g>
                <text x="516.282px" y="172.885px" style="font-family:'GoodTimesRg-Regular', 'Good Times', sans-serif;font-size:50px;fill:white;">good</text>
            </g>
            <g transform="matrix(0.797872,0,0,0.892857,634.193,-35.041)">
                <g transform="matrix(50,0,0,50,863.332,172.885)">
                </g>
                <text x="516.282px" y="172.885px" style="font-family:'GoodTimesRg-Regular', 'Good Times', sans-serif;font-size:50px;fill:white;">M<tspan x="570.032px " y="172.885px ">O</tspan>DERA<tspan x="789.382px " y="172.885px ">T</tspan>E</text>
            </g>
            <g transform="matrix(0.797872,0,0,0.892857,1296.34,-35.041)">
                <g transform="matrix(50,0,0,50,887.632,172.885)">
                </g>
                <text x="516.282px" y="172.885px" style="font-family:'GoodTimesRg-Regular', 'Good Times', sans-serif;font-size:50px;fill:white;">UNHEAL<tspan x="763.432px " y="172.885px ">T</tspan>HY</text>
            </g>
            <g transform="matrix(0.797872,0,0,0.892857,1905.09,-35.041)">
                <g transform="matrix(50,0,0,50,1077.63,172.885)">
                </g>
                <text x="516.282px" y="172.885px" style="font-family:'GoodTimesRg-Regular', 'Good Times', sans-serif;font-size:50px;fill:white;">VER<tspan x="645.282px " y="172.885px ">Y</tspan> UNHEAL<tspan x="953.432px " y="172.885px ">T</tspan>HY</text>
            </g>
            <g transform="matrix(0.797872,0,0,0.892857,2680.55,-35.041)">
                <g transform="matrix(50,0,0,50,787.182,172.885)">
                </g>
                <text x="516.282px" y="172.885px" style="font-family:'GoodTimesRg-Regular', 'Good Times', sans-serif;font-size:50px;fill:white;">HAZARD</text>
            </g>
        </g>
        <g transform="matrix(1.38305,0,0,1.07505,-1374.65,-89.2894)">
            <path d="M2867.07,344.446C2867.07,329.245 2858.51,316.922 2847.95,316.922C2719.14,316.922 1979.14,316.922 1850.33,316.922C1839.77,316.922 1831.22,329.245 1831.22,344.446L1831.22,344.449C1831.22,359.65 1839.77,371.973 1850.33,371.973C1979.14,371.973 2719.14,371.973 2847.95,371.973C2858.51,371.973 2867.07,359.65 2867.07,344.449C2867.07,344.448 2867.07,344.447 2867.07,344.446Z" style="fill:rgb(81,81,81);"/>
        </g>
        <g transform="matrix(0.629839,0,0,0.70482,1588.55,56.0845)">
            <g transform="matrix(50,0,0,50,766.785,337.475)">
            </g>
            <text x="118.285px" y="337.475px" style="font-family:'GoodTimesRg-Regular', 'Good Times', sans-serif;font-size:50px;fill:white;">Air Qu<tspan x="331.585px " y="337.475px ">a</tspan>lity Levels</text>
        </g>
    </g>
</svg>
