<?xml version="1.0" encoding="UTF-8" standalone="no"?>
<!DOCTYPE svg PUBLIC "-//W3C//DTD SVG 1.1//EN" "http://www.w3.org/Graphics/SVG/1.1/DTD/svg11.dtd">
<svg width="100%" height="100%" viewBox="0 0 1080 1080" version="1.1" xmlns="http://www.w3.org/2000/svg" xmlns:xlink="http://www.w3.org/1999/xlink" xml:space="preserve" xmlns:serif="http://www.serif.com/" style="fill-rule:evenodd;clip-rule:evenodd;stroke-linejoin:round;stroke-miterlimit:2;">
    <g transform="matrix(1.11669,0,0,1.09844,-63.012,-89.3869)">
        <g transform="matrix(1,0,0,1,0,-4.53146)">
            <g transform="matrix(1.41039,0,0,1.41039,48.6469,62.3011)">
                <g transform="matrix(0.607878,0,0.220466,0.706464,-27.7448,-2.82103)">
                    <path d="M452.684,204.945C452.438,182.287 433.838,166.959 406.589,166.959L106.959,166.959C106.959,166.959 107.546,221.118 107.982,261.35C108.258,286.809 129.157,304.031 159.775,304.031L453.757,304.031C453.757,304.031 453.123,245.511 452.684,204.945Z" style="fill:rgb(133,133,133);"/>
                </g>
                <g transform="matrix(0.607878,0,0.220466,0.706464,213.286,-2.82103)">
                    <path d="M452.684,204.945C452.438,182.287 433.838,166.959 406.589,166.959L106.959,166.959C106.959,166.959 107.546,221.118 107.982,261.35C108.258,286.809 129.157,304.031 159.775,304.031L453.757,304.031C453.757,304.031 453.123,245.511 452.684,204.945Z" style="fill:rgb(133,133,133);"/>
                </g>
                <g transform="matrix(0.607878,0,0.220466,0.706464,15.9351,123.848)">
                    <path d="M452.684,204.945C452.438,182.287 433.838,166.959 406.589,166.959L106.959,166.959C106.959,166.959 107.546,221.118 107.982,261.35C108.258,286.809 129.157,304.031 159.775,304.031L453.757,304.031C453.757,304.031 453.123,245.511 452.684,204.945Z" style="fill:rgb(133,133,133);"/>
                </g>
                <g transform="matrix(0.607878,0,0.220466,0.706464,256.966,123.848)">
                    <path d="M452.684,204.945C452.438,182.287 433.838,166.959 406.589,166.959L106.959,166.959C106.959,166.959 107.546,221.118 107.982,261.35C108.258,286.809 129.157,304.031 159.775,304.031L453.757,304.031C453.757,304.031 453.123,245.511 452.684,204.945Z" style="fill:rgb(133,133,133);"/>
                </g>
                <g transform="matrix(0.607878,0,0.220466,0.706464,58.1901,256.688)">
                    <path d="M452.684,204.945C452.438,182.287 433.838,166.959 406.589,166.959L106.959,166.959C106.959,166.959 107.546,221.118 107.982,261.35C108.258,286.809 129.157,304.031 159.775,304.031L453.757,304.031C453.757,304.031 453.123,245.511 452.684,204.945Z" style="fill:rgb(133,133,133);"/>
                </g>
                <g transform="matrix(0.607878,0,0.220466,0.706464,299.221,256.688)">
                    <path d="M452.684,204.945C452.438,182.287 433.838,166.959 406.589,166.959L106.959,166.959C106.959,166.959 107.546,221.118 107.982,261.35C108.258,286.809 129.157,304.031 159.775,304.031L453.757,304.031C453.757,304.031 453.123,245.511 452.684,204.945Z" style="fill:rgb(133,133,133);"/>
                </g>
            </g>
            <g transform="matrix(0.857345,0,0.310943,0.996389,-17.843,42.8823)">
                <path d="M452.684,204.945C452.438,182.287 433.838,166.959 406.589,166.959L106.959,166.959C106.959,166.959 107.546,221.118 107.982,261.35C108.258,286.809 129.157,304.031 159.775,304.031L453.757,304.031C453.757,304.031 453.123,245.511 452.684,204.945Z" style="fill:rgb(31,31,31);"/>
            </g>
            <g transform="matrix(0.857345,0,0.310943,0.996389,322.104,42.8823)">
                <path d="M452.684,204.945C452.438,182.287 433.838,166.959 406.589,166.959L106.959,166.959C106.959,166.959 107.546,221.118 107.982,261.35C108.258,286.809 129.157,304.031 159.775,304.031L453.757,304.031C453.757,304.031 453.123,245.511 452.684,204.945Z" style="fill:rgb(239,48,55);"/>
            </g>
            <g transform="matrix(0.857345,0,0.310943,0.996389,43.7627,221.535)">
                <path d="M452.684,204.945C452.438,182.287 433.838,166.959 406.589,166.959L106.959,166.959C106.959,166.959 107.546,221.118 107.982,261.35C108.258,286.809 129.157,304.031 159.775,304.031L453.757,304.031C453.757,304.031 453.123,245.511 452.684,204.945Z" style="fill:rgb(31,31,31);"/>
            </g>
            <g transform="matrix(0.857345,0,0.310943,0.996389,383.71,221.535)">
                <path d="M452.684,204.945C452.438,182.287 433.838,166.959 406.589,166.959L106.959,166.959C106.959,166.959 107.546,221.118 107.982,261.35C108.258,286.809 129.157,304.031 159.775,304.031L453.757,304.031C453.757,304.031 453.123,245.511 452.684,204.945Z" style="fill:rgb(31,31,31);"/>
            </g>
            <g transform="matrix(0.857345,0,0.310943,0.996389,103.359,408.891)">
                <path d="M452.684,204.945C452.438,182.287 433.838,166.959 406.589,166.959L106.959,166.959C106.959,166.959 107.546,221.118 107.982,261.35C108.258,286.809 129.157,304.031 159.775,304.031L453.757,304.031C453.757,304.031 453.123,245.511 452.684,204.945Z" style="fill:rgb(31,31,31);"/>
            </g>
            <g transform="matrix(0.857345,0,0.310943,0.996389,443.306,408.891)">
                <path d="M452.684,204.945C452.438,182.287 433.838,166.959 406.589,166.959L106.959,166.959C106.959,166.959 107.546,221.118 107.982,261.35C108.258,286.809 129.157,304.031 159.775,304.031L453.757,304.031C453.757,304.031 453.123,245.511 452.684,204.945Z" style="fill:rgb(31,31,31);"/>
            </g>
        </g>
        <g transform="matrix(18.9016,0,0,18.9016,-3241.43,-13056.5)">
            <text x="180.351px" y="740.498px" style="font-family:'FranklinGothic-Heavy', 'Franklin Gothic Heavy', sans-serif;font-size:12px;">PT<tspan x="193.4px 196.699px " y="740.498px 740.498px ">. </tspan>BIB</text>
        </g>
    </g>
</svg>
