<?xml version="1.0" encoding="UTF-8" standalone="no"?>
<!DOCTYPE svg PUBLIC "-//W3C//DTD SVG 1.1//EN" "http://www.w3.org/Graphics/SVG/1.1/DTD/svg11.dtd">
<svg width="100%" height="100%" viewBox="0 0 462 577" version="1.1" xmlns="http://www.w3.org/2000/svg" xmlns:xlink="http://www.w3.org/1999/xlink" xml:space="preserve" xmlns:serif="http://www.serif.com/" style="fill-rule:evenodd;clip-rule:evenodd;stroke-linejoin:round;stroke-miterlimit:2;">
    <g transform="matrix(1,0,0,1,-309.017,-258.319)">
        <g>
            <g transform="matrix(0.451139,0,0,0.451139,817.205,-205.286)">
                <g transform="matrix(1.03221,0,0,1.03221,16.6935,-43.5577)">
                    <circle cx="-611.456" cy="1534.84" r="496.024" style="fill:white;"/>
                </g>
                <path d="M-1090.9,1351.62C-1083.93,1334 -1076.01,1316.85 -1067.2,1300.24L-882.217,1300.24C-893.905,1316.69 -903.22,1334.94 -909.661,1354.49C-933.908,1332.1 -966.31,1318.41 -1001.88,1318.41C-1035.91,1318.41 -1067.04,1330.94 -1090.9,1351.62Z" style="fill:rgb(0,42,166);"/>
                <path d="M-136.554,1355.97L-359.897,1355.97C-379.812,1334.71 -408.134,1321.41 -439.538,1321.41C-470.941,1321.41 -499.263,1334.71 -519.178,1355.97L-520.97,1355.97C-527.424,1335.86 -536.913,1317.1 -548.896,1300.24L-161.955,1300.24C-152.422,1318.21 -143.928,1336.81 -136.554,1355.97Z" style="fill:rgb(0,42,166);"/>
                <path d="M-330.978,1113.39L-898.174,1113.39C-816.964,1059.22 -719.43,1027.63 -614.576,1027.63C-509.722,1027.63 -412.188,1059.22 -330.978,1113.39Z" style="fill:rgb(0,42,166);"/>
                <path d="M-108.069,1464.43L-187.629,1464.43C-189.118,1456 -191.896,1448 -195.754,1440.66L-112.152,1440.66C-110.61,1448.52 -109.247,1456.45 -108.069,1464.43Z" style="fill:rgb(0,42,166);"/>
                <path d="M-198.627,1241.17L-198.627,1248.96L-601.392,1248.96C-633.996,1226.94 -673.286,1214.08 -715.557,1214.08C-757.827,1214.08 -797.117,1226.94 -829.721,1248.96L-1036.02,1248.96C-1018.77,1224.01 -999.357,1200.66 -978.06,1179.19L-251.091,1179.19C-232.026,1198.41 -214.473,1219.14 -198.627,1241.17Z" style="fill:rgb(0,42,166);"/>
                <path d="M-115.431,1425.21L-206.261,1425.21C-221.333,1407.71 -243.652,1396.62 -268.541,1396.62C-293.292,1396.62 -315.502,1407.59 -330.571,1424.92C-331.243,1411.65 -334.291,1399 -339.298,1387.39L-125.628,1387.39C-121.762,1399.81 -118.357,1412.42 -115.431,1425.21Z" style="fill:rgb(0,42,166);"/>
                <g transform="matrix(1.03487,0,0,1.03487,30.8277,-43.4153)">
                    <path d="M-1102.54,1643.47L-830.895,1643.47L-802.358,1672.94L-146.57,1672.94C-148.792,1680.37 -151.183,1687.72 -153.74,1694.99L-779.722,1694.99L-794.731,1679.07L-1092.83,1679.07C-1096.5,1667.38 -1099.74,1655.51 -1102.54,1643.47Z" style="fill:rgb(38,174,38);"/>
                </g>
                <g transform="matrix(1.03487,0,0,1.03487,30.8277,-43.4153)">
                    <path d="M-1105.85,1628.14C-1107.33,1620.71 -1108.64,1613.23 -1109.79,1605.68L-867.476,1605.68L-845.732,1628.14L-1105.85,1628.14Z" style="fill:rgb(38,174,38);"/>
                </g>
                <g transform="matrix(1.03487,0,0,1.03487,30.8277,-43.4153)">
                    <path d="M-1026.45,1813.99L-662.185,1813.99L-697.251,1778.89L-192.428,1778.89C-202.637,1796.48 -213.898,1813.38 -226.126,1829.52L-646.658,1829.52L-598.198,1880.14L-270.174,1880.14C-295.617,1905.68 -323.83,1928.47 -354.323,1948L-530.375,1948L-476.324,2004.4C-521.988,2018.32 -570.446,2025.81 -620.639,2025.81C-719.118,2025.81 -810.915,1996.98 -888.041,1947.3L-531.091,1947.3L-598.216,1880.14L-971.104,1880.14C-991.4,1859.77 -1009.93,1837.63 -1026.45,1813.99Z" style="fill:rgb(38,174,38);"/>
                </g>
                <g transform="matrix(1.03487,0,0,1.03487,30.8277,-43.4153)">
                    <path d="M-1081.62,1710.94L-159.66,1710.94C-164.341,1722.92 -169.476,1734.67 -175.044,1746.17L-727.834,1746.17L-712.503,1762.47L-1057.97,1762.47C-1066.8,1745.83 -1074.7,1728.64 -1081.62,1710.94Z" style="fill:rgb(38,174,38);"/>
                </g>
                <g transform="matrix(1.91541,0,0,1,1025.42,0)">
                    <rect x="-1123.46" y="1534.84" width="534.611" height="17.751" style="fill:rgb(101,101,101);"/>
                </g>
            </g>
            <g transform="matrix(0.793826,0,0,0.793826,108.208,154.253)">
                <g transform="matrix(153.15,0,0,153.15,776.915,855.678)">
                </g>
                <text x="309.017px" y="855.678px" style="font-family:'Arial-BoldMT', 'Arial', sans-serif;font-weight:700;font-size:153.15px;fill:white;">BMKG</text>
            </g>
        </g>
    </g>
</svg>
