<?xml version="1.0" encoding="UTF-8" standalone="no"?>
<!DOCTYPE svg PUBLIC "-//W3C//DTD SVG 1.1//EN" "http://www.w3.org/Graphics/SVG/1.1/DTD/svg11.dtd">
<svg width="100%" height="100%" viewBox="0 0 210 153" version="1.1" xmlns="http://www.w3.org/2000/svg" xmlns:xlink="http://www.w3.org/1999/xlink" xml:space="preserve" xmlns:serif="http://www.serif.com/" style="fill-rule:evenodd;clip-rule:evenodd;stroke-linejoin:round;stroke-miterlimit:2;">
    <g transform="matrix(1,0,0,1,-1254.4,7.45043)">
        <g transform="matrix(1,0,0,1,57.0451,-19.7614)">
            <g transform="matrix(0.146613,0,0,0.146613,1184.63,16.7289)">
                <circle cx="540.495" cy="423.574" r="366.207" style="fill:rgb(74,74,74);"/>
                <path d="M534.468,477.14C534.468,477.14 591.028,545.569 590.393,577.524C589.758,609.478 563.299,634.905 531.344,634.27C499.389,633.635 473.962,607.176 474.598,575.221C475.233,543.267 534.468,477.14 534.468,477.14Z" style="fill:rgb(68,211,255);"/>
                <path d="M444.056,581.818C444.056,581.818 481.822,627.51 481.398,648.847C480.974,670.183 463.306,687.162 441.969,686.737C420.633,686.313 403.654,668.646 404.079,647.309C404.503,625.972 444.056,581.818 444.056,581.818Z" style="fill:white;"/>
                <path d="M623.92,581.818C623.92,581.818 661.686,627.51 661.262,648.847C660.838,670.183 643.17,687.162 621.834,686.737C600.497,686.313 583.518,668.646 583.943,647.309C584.367,625.972 623.92,581.818 623.92,581.818Z" style="fill:rgb(174,237,255);"/>
                <path d="M468.316,542.152L466.295,542.152L466.283,542.137L466.025,542.136C361.793,540.816 277.566,455.779 277.566,351.222C277.566,245.845 363.118,160.293 468.495,160.293C552.361,160.293 623.665,214.487 649.277,289.715L677.247,289.715C710.712,289.715 742.806,303.008 766.469,326.671C790.131,350.335 803.425,382.428 803.425,415.893L803.425,415.973C803.425,449.438 790.131,481.532 766.469,505.195C742.806,528.858 710.712,542.151 677.247,542.152L597.172,542.152L574.488,499.601L677.249,499.601C699.428,499.601 720.698,490.79 736.381,475.107C752.064,459.424 760.875,438.153 760.874,415.973L760.874,415.893C760.875,393.713 752.064,372.442 736.381,356.759C720.698,341.076 699.428,332.265 677.247,332.265L633.341,332.265C623.53,332.265 614.992,325.556 612.67,316.024C596.858,251.097 538.265,202.843 468.495,202.843C386.602,202.843 320.116,269.33 320.116,351.222C320.116,432.474 385.564,498.563 466.564,499.589L466.89,499.601L491.001,499.601L468.316,542.152Z" style="fill:white;"/>
                <path d="M417.986,367.909L532.492,367.909L431.873,461.141L490.772,461.141L293.346,634.282L372.324,522.776L333.661,522.776L417.986,367.909Z" style="fill:rgb(255,182,0);"/>
            </g>
            <g id="magnify" transform="matrix(-2.02901,0,0,2.02901,1753.9,-716.281)">
                <path d="M194,414C193.232,414 192.464,413.707 191.879,413.121C190.707,411.949 190.707,410.051 191.879,408.879L197.879,402.879C199.05,401.707 200.95,401.707 202.121,402.879C203.293,404.051 203.293,405.949 202.121,407.121L196.121,413.121C195.536,413.707 194.768,414 194,414Z" style="fill:rgb(100,123,139);fill-rule:nonzero;"/>
                <path d="M176,434C174.72,434 173.441,433.512 172.464,432.535C170.512,430.583 171,427 172,426L189,409C190,408 193.583,407.512 195.536,409.465C197.488,411.417 197,415 196,416L179,433C178.023,433.977 177.28,434 176,434Z" style="fill:rgb(207,66,44);fill-rule:nonzero;"/>
                <path d="M183,429L176,422L178,420L185,427L183,429Z" style="fill:rgb(240,96,80);fill-rule:nonzero;"/>
                <path d="M187,425L180,418L182,416L189,423L187,425Z" style="fill:rgb(240,96,80);fill-rule:nonzero;"/>
                <path d="M191,421L184,414L186,412L193,419L191,421Z" style="fill:rgb(240,96,80);fill-rule:nonzero;"/>
                <path d="M231,393C231,403.493 222.493,412 212,412C201.507,412 193,403.493 193,393C193,382.507 201.507,374 212,374C222.493,374 231,382.507 231,393Z" style="fill:rgb(51,73,91);fill-rule:nonzero;"/>
                <path d="M227,393C227,401.284 220.284,408 212,408C203.716,408 197,401.284 197,393C197,384.716 203.716,378 212,378C220.284,378 227,384.716 227,393Z" style="fill:rgb(236,242,244);fill-rule:nonzero;"/>
                <g>
                    <g>
                        <g>
                            <g>
                                <g>
                                    <clipPath id="_clip1">
                                        <path d="M227,393C227,401.284 220.284,408 212,408C203.716,408 197,401.284 197,393C197,384.716 203.716,378 212,378C220.284,378 227,384.716 227,393Z"/>
                                    </clipPath>
                                    <g clip-path="url(#_clip1)">
                                        <g transform="matrix(-0.089524,0,0,0.089524,289.896,353.951)">
                                            <g opacity="0.72">
                                                <circle cx="540.495" cy="423.574" r="366.207" style="fill:rgb(74,74,74);"/>
                                                <path d="M534.468,477.14C534.468,477.14 591.028,545.569 590.393,577.524C589.758,609.478 563.299,634.905 531.344,634.27C499.389,633.635 473.962,607.176 474.598,575.221C475.233,543.267 534.468,477.14 534.468,477.14Z" style="fill:rgb(68,211,255);"/>
                                                <path d="M444.056,581.818C444.056,581.818 481.822,627.51 481.398,648.847C480.974,670.183 463.306,687.162 441.969,686.737C420.633,686.313 403.654,668.646 404.079,647.309C404.503,625.972 444.056,581.818 444.056,581.818Z" style="fill:white;"/>
                                                <path d="M623.92,581.818C623.92,581.818 661.686,627.51 661.262,648.847C660.838,670.183 643.17,687.162 621.834,686.737C600.497,686.313 583.518,668.646 583.943,647.309C584.367,625.972 623.92,581.818 623.92,581.818Z" style="fill:rgb(174,237,255);"/>
                                                <path d="M468.316,542.152L466.295,542.152L466.283,542.137L466.025,542.136C361.793,540.816 277.566,455.779 277.566,351.222C277.566,245.845 363.118,160.293 468.495,160.293C552.361,160.293 623.665,214.487 649.277,289.715L677.247,289.715C710.712,289.715 742.806,303.008 766.469,326.671C790.131,350.335 803.425,382.428 803.425,415.893L803.425,415.973C803.425,449.438 790.131,481.532 766.469,505.195C742.806,528.858 710.712,542.151 677.247,542.152L597.172,542.152L574.488,499.601L677.249,499.601C699.428,499.601 720.698,490.79 736.381,475.107C752.064,459.424 760.875,438.153 760.874,415.973L760.874,415.893C760.875,393.713 752.064,372.442 736.381,356.759C720.698,341.076 699.428,332.265 677.247,332.265L633.341,332.265C623.53,332.265 614.992,325.556 612.67,316.024C596.858,251.097 538.265,202.843 468.495,202.843C386.602,202.843 320.116,269.33 320.116,351.222C320.116,432.474 385.564,498.563 466.564,499.589L466.89,499.601L491.001,499.601L468.316,542.152Z" style="fill:white;"/>
                                                <path d="M417.986,367.909L532.492,367.909L431.873,461.141L490.772,461.141L293.346,634.282L372.324,522.776L333.661,522.776L417.986,367.909Z" style="fill:rgb(255,182,0);"/>
                                            </g>
                                        </g>
                                    </g>
                                </g>
                            </g>
                        </g>
                    </g>
                </g>
                <path d="M215,385C215,386.656 213.657,388 212,388C210.343,388 209,386.656 209,385C209,383.344 210.343,382 212,382C213.657,382 215,383.344 215,385Z" style="fill:white;fill-rule:nonzero;"/>
            </g>
        </g>
    </g>
</svg>
