<?xml version="1.0" encoding="UTF-8" standalone="no"?>
<!DOCTYPE svg PUBLIC "-//W3C//DTD SVG 1.1//EN" "http://www.w3.org/Graphics/SVG/1.1/DTD/svg11.dtd">
<svg width="100%" height="100%" viewBox="0 0 1081 1080" version="1.1" xmlns="http://www.w3.org/2000/svg" xmlns:xlink="http://www.w3.org/1999/xlink" xml:space="preserve" xmlns:serif="http://www.serif.com/" style="fill-rule:evenodd;clip-rule:evenodd;stroke-linejoin:round;stroke-miterlimit:2;">
    <rect id="CERAHBERAWAN" x="0.358" y="0" width="1080" height="1080" style="fill:none;"/>
    <g>
        <path d="M540.358,20C763.096,20 943.932,200.835 943.932,423.574C943.932,789.78 540.358,1061.33 540.358,1061.33C540.358,1061.33 136.784,789.78 136.784,423.574C136.784,200.835 317.62,20 540.358,20Z" style="fill:rgb(51,51,51);"/>
        <circle cx="540.358" cy="423.574" r="366.207" style="fill:rgb(74,74,74);"/>
    </g>
    <g transform="matrix(2.2304,0,0,2.2304,3531.34,43.4883)">
        <g transform="matrix(1.57967,0,0,1.57967,-2518.77,-74.3045)">
            <circle cx="747.505" cy="148.396" r="58.487" style="fill:rgb(255,201,0);"/>
        </g>
        <g transform="matrix(0.708864,0,0,0.868659,-2305.5,-7.7877)">
            <path d="M1187.89,170.509L1364.91,170.509C1372.27,170.509 1378.24,165.635 1378.24,159.632C1378.24,153.629 1372.27,148.755 1364.91,148.755L1187.89,148.755C1180.53,148.755 1174.56,153.629 1174.56,159.632C1174.56,165.635 1180.53,170.509 1187.89,170.509Z" style="fill:rgb(119,119,119);"/>
        </g>
        <g transform="matrix(1.23078,0,0,0.868659,-2925.48,47.6266)">
            <path d="M1187.89,170.509L1364.91,170.509C1369.15,170.509 1372.59,165.635 1372.59,159.632C1372.59,153.629 1369.15,148.755 1364.91,148.755L1187.89,148.755C1183.65,148.755 1180.21,153.629 1180.21,159.632C1180.21,165.635 1183.65,170.509 1187.89,170.509Z" style="fill:rgb(119,119,119);"/>
        </g>
        <g transform="matrix(0.845052,0,0,2.19186,-2371.98,-137.799)">
            <path d="M1187.89,163.943L1364.91,163.943C1371.08,163.943 1376.09,162.011 1376.09,159.632C1376.09,157.253 1371.08,155.321 1364.91,155.321L1187.89,155.321C1181.72,155.321 1176.71,157.253 1176.71,159.632C1176.71,162.011 1181.72,163.943 1187.89,163.943Z" style="fill:rgb(119,119,119);"/>
        </g>
        <g transform="matrix(0.708864,0,0,2.19186,-2305.5,-111.213)">
            <path d="M1187.89,163.943L1364.91,163.943C1372.27,163.943 1378.24,162.011 1378.24,159.632C1378.24,157.253 1372.27,155.321 1364.91,155.321L1187.89,155.321C1180.53,155.321 1174.56,157.253 1174.56,159.632C1174.56,162.011 1180.53,163.943 1187.89,163.943Z" style="fill:rgb(119,119,119);"/>
        </g>
        <g transform="matrix(0.251979,0,0,2.19186,-1616.79,-111.213)">
            <path d="M1187.89,163.943L1364.91,163.943C1385.6,163.943 1402.4,162.011 1402.4,159.632C1402.4,157.253 1385.6,155.321 1364.91,155.321L1187.89,155.321C1167.19,155.321 1150.39,157.253 1150.39,159.632C1150.39,162.011 1167.19,163.943 1187.89,163.943Z" style="fill:rgb(119,119,119);"/>
        </g>
        <g transform="matrix(0.521914,0,0,0.868659,-2050.33,21.4459)">
            <path d="M1187.89,170.509L1364.91,170.509C1374.9,170.509 1383.01,165.635 1383.01,159.632C1383.01,153.629 1374.9,148.755 1364.91,148.755L1187.89,148.755C1177.9,148.755 1169.79,153.629 1169.79,159.632C1169.79,165.635 1177.9,170.509 1187.89,170.509Z" style="fill:rgb(119,119,119);"/>
        </g>
        <g transform="matrix(0.187455,0,0,0.868659,-1532.35,21.4459)">
            <path d="M1187.89,170.509L1364.91,170.509C1392.73,170.509 1415.31,165.635 1415.31,159.632C1415.31,153.629 1392.73,148.755 1364.91,148.755L1187.89,148.755C1160.07,148.755 1137.49,153.629 1137.49,159.632C1137.49,165.635 1160.07,170.509 1187.89,170.509Z" style="fill:rgb(119,119,119);"/>
        </g>
    </g>
</svg>
