<?xml version="1.0" encoding="UTF-8" standalone="no"?>
<!DOCTYPE svg PUBLIC "-//W3C//DTD SVG 1.1//EN" "http://www.w3.org/Graphics/SVG/1.1/DTD/svg11.dtd">
<svg width="100%" height="100%" viewBox="0 0 200 400" version="1.1" xmlns="http://www.w3.org/2000/svg" xmlns:xlink="http://www.w3.org/1999/xlink" xml:space="preserve" xmlns:serif="http://www.serif.com/" style="fill-rule:evenodd;clip-rule:evenodd;stroke-linejoin:round;stroke-miterlimit:2;">
    <g transform="matrix(5,0,0,5.05546,-2005,-308.581)">
        <g id="location">
            <path d="M401,94C401,97.242 401.631,100.293 403,103L421,138L421,74C409.954,74 401,82.955 401,94Z" style="fill:rgb(240,96,80);fill-rule:nonzero;"/>
            <path d="M441,94C441,82.955 432.046,74 421,74L421,138L439,103C440.369,100.293 441,97.242 441,94Z" style="fill:rgb(212,84,67);fill-rule:nonzero;"/>
            <path d="M434,94C434,101.18 428.18,107 421,107C413.82,107 408,101.18 408,94C408,86.821 413.82,81 421,81C428.18,81 434,86.821 434,94Z" style="fill:rgb(207,66,44);fill-rule:nonzero;"/>
            <path d="M432,94C432,100.075 427.075,105 421,105C414.925,105 410,100.075 410,94C410,87.925 414.925,83 421,83C427.075,83 432,87.925 432,94Z" style="fill:white;fill-rule:nonzero;"/>
        </g>
    </g>
</svg>
